<svg width="28" height="28" viewBox="0 0 28 28" fill="none" xmlns="http://www.w3.org/2000/svg">
<g clip-path="url(#clip0_24_774)">
<path d="M27.377 13.689C27.377 6.12898 21.2485 0.000431061 13.6885 0.000431061C6.12855 0.000431061 0 6.12898 0 13.689C0 20.5213 5.00569 26.1843 11.5497 27.2112V17.6458H8.07409V13.689H11.5497V10.6732C11.5497 7.24251 13.5933 5.34751 16.72 5.34751C18.2177 5.34751 19.7842 5.61486 19.7842 5.61486V8.98352H18.0581C16.3577 8.98352 15.8274 10.0387 15.8274 11.1212V13.689H19.6238L19.0169 17.6458H15.8274V27.2112C22.3713 26.1843 27.377 20.5213 27.377 13.689Z" fill="white"/>
<path d="M19.0169 17.6458L19.6238 13.6889H15.8274V11.1212C15.8274 10.0387 16.3577 8.98349 18.0581 8.98349H19.7842V5.61483C19.7842 5.61483 18.2177 5.34748 16.7201 5.34748C13.5933 5.34748 11.5497 7.24248 11.5497 10.6732V13.6889H8.0741V17.6458H11.5497V27.2111C12.2466 27.3205 12.9609 27.3774 13.6885 27.3774C14.4162 27.3774 15.1305 27.3205 15.8274 27.2111V17.6458H19.0169Z" fill="black"/>
</g>
<defs>
<clipPath id="clip0_24_774">
<rect width="27.377" height="27.377" fill="white"/>
</clipPath>
</defs>
</svg>
