<svg width="36" height="36" viewBox="0 0 36 36" fill="none" xmlns="http://www.w3.org/2000/svg">
<path d="M18.0396 35.6236H17.9604C8.05714 35.6236 0 27.6507 0 17.851V17.7726C0 7.9729 8.05714 0 17.9604 0H18.0396C27.9429 0 36 7.9729 36 17.7726V17.851C36 27.6507 27.9429 35.6236 18.0396 35.6236ZM17.9604 1.20582C8.72857 1.20582 1.21856 8.63731 1.21856 17.7726V17.851C1.21856 26.9863 8.72857 34.4178 17.9604 34.4178H18.0396C27.2714 34.4178 34.7814 26.9863 34.7814 17.851V17.7726C34.7814 8.63731 27.2714 1.20582 18.0396 1.20582H17.9604Z" fill="white"/>
<path d="M20.4217 13.8177V17.5666H25.1083L24.3662 22.6165H20.4217V34.2515C19.6309 34.36 18.8218 34.4167 18.0005 34.4167C17.0524 34.4167 16.1214 34.342 15.2148 34.1973V22.6165H10.8926V17.5666H15.2148V12.9796C15.2148 10.1339 17.5459 7.82593 20.423 7.82593V7.82833C20.4315 7.82833 20.4388 7.82593 20.4473 7.82593H25.1096V12.1934H22.0631C21.1578 12.1934 20.423 12.9205 20.423 13.8164L20.4217 13.8177Z" fill="white"/>
</svg>
