<svg width="168" height="35" viewBox="0 0 168 35" fill="none" xmlns="http://www.w3.org/2000/svg">
<g filter="url(#filter0_d_13_20)">
<mask id="path-1-outside-1_13_20" maskUnits="userSpaceOnUse" x="3" y="-1" width="162" height="29" fill="black">
<rect fill="white" x="3" y="-1" width="162" height="29"/>
<path d="M15.9766 15.873C16.0586 15.2715 15.9993 14.7702 15.7988 14.3691C15.5983 13.959 15.3066 13.6172 14.9238 13.3438C14.541 13.0612 14.1126 12.8288 13.6387 12.6465C13.1647 12.4551 12.6908 12.2773 12.2168 12.1133C11.5332 11.8763 10.8587 11.5983 10.1934 11.2793C9.53711 10.9603 8.94466 10.5775 8.41602 10.1309C7.88737 9.67513 7.47266 9.13737 7.17188 8.51758C6.88021 7.89779 6.76628 7.17318 6.83008 6.34375C6.90299 5.42318 7.16276 4.61654 7.60938 3.92383C8.05599 3.22201 8.62565 2.63867 9.31836 2.17383C10.0111 1.70898 10.7721 1.36263 11.6016 1.13477C12.431 0.906901 13.2695 0.802083 14.1172 0.820312C15.293 0.847656 16.3457 1.11198 17.2754 1.61328C18.2051 2.10547 18.9297 2.79818 19.4492 3.69141C19.9688 4.58464 20.1966 5.63737 20.1328 6.84961L17.5625 6.83594C17.6263 6.04297 17.526 5.36393 17.2617 4.79883C16.9974 4.22461 16.5872 3.78255 16.0312 3.47266C15.4844 3.16276 14.8099 2.9987 14.0078 2.98047C13.2786 2.96224 12.5814 3.07161 11.916 3.30859C11.2598 3.54557 10.7038 3.91471 10.248 4.41602C9.79232 4.9082 9.51432 5.54167 9.41406 6.31641C9.34115 6.85417 9.41406 7.31445 9.63281 7.69727C9.85156 8.08008 10.1523 8.40365 10.5352 8.66797C10.9271 8.93229 11.3509 9.1556 11.8066 9.33789C12.2715 9.52018 12.7135 9.67969 13.1328 9.81641C13.862 10.0625 14.5638 10.3542 15.2383 10.6914C15.9219 11.0195 16.5234 11.4206 17.043 11.8945C17.5716 12.3594 17.9727 12.9154 18.2461 13.5625C18.5286 14.2096 18.6335 14.9707 18.5605 15.8457C18.4785 16.7936 18.2096 17.6139 17.7539 18.3066C17.2982 18.9993 16.7148 19.569 16.0039 20.0156C15.293 20.4531 14.5137 20.7767 13.666 20.9863C12.8184 21.196 11.9661 21.2917 11.1094 21.2734C10.2161 21.2643 9.36849 21.123 8.56641 20.8496C7.77344 20.5671 7.07161 20.166 6.46094 19.6465C5.85026 19.127 5.38086 18.498 5.05273 17.7598C4.72461 17.0124 4.58333 16.1647 4.62891 15.2168L7.18555 15.2305C7.13997 15.8685 7.20833 16.429 7.39062 16.9121C7.57292 17.3952 7.84635 17.8008 8.21094 18.1289C8.58464 18.4479 9.02669 18.694 9.53711 18.8672C10.0475 19.0312 10.6081 19.1178 11.2188 19.127C11.9388 19.1452 12.6406 19.0449 13.3242 18.8262C14.0169 18.6074 14.6048 18.2565 15.0879 17.7734C15.571 17.2904 15.8672 16.6569 15.9766 15.873ZM26.6953 0L23.0449 21H20.5703L24.2207 0H26.6953ZM23.8926 13.043L22.8809 13.0156C23.0085 12.1315 23.2409 11.2656 23.5781 10.418C23.9245 9.5612 24.3757 8.79102 24.9316 8.10742C25.4967 7.42383 26.1667 6.88607 26.9414 6.49414C27.7253 6.0931 28.6185 5.90625 29.6211 5.93359C30.4141 5.95182 31.0749 6.10677 31.6035 6.39844C32.1413 6.68099 32.5605 7.06836 32.8613 7.56055C33.1621 8.05273 33.3626 8.6224 33.4629 9.26953C33.5632 9.90755 33.5723 10.5866 33.4902 11.3066L31.877 21H29.3887L31.0293 11.2656C31.0931 10.6732 31.0703 10.14 30.9609 9.66602C30.8607 9.18294 30.6328 8.80013 30.2773 8.51758C29.931 8.22591 29.4297 8.07096 28.7734 8.05273C28.0807 8.03451 27.4564 8.16667 26.9004 8.44922C26.3444 8.73177 25.8568 9.11914 25.4375 9.61133C25.0273 10.0944 24.6901 10.6367 24.4258 11.2383C24.1706 11.8307 23.9928 12.4323 23.8926 13.043ZM36.1699 13.8496L36.2109 13.5352C36.3203 12.5417 36.5664 11.5846 36.9492 10.6641C37.3411 9.74349 37.8561 8.92318 38.4941 8.20312C39.1322 7.48307 39.8887 6.91797 40.7637 6.50781C41.6387 6.09766 42.6139 5.90625 43.6895 5.93359C44.7285 5.95182 45.6172 6.17513 46.3555 6.60352C47.1029 7.0319 47.7044 7.60156 48.1602 8.3125C48.625 9.01432 48.9486 9.80729 49.1309 10.6914C49.3132 11.5755 49.3587 12.487 49.2676 13.4258L49.2402 13.7402C49.1217 14.7337 48.8665 15.6862 48.4746 16.5977C48.0827 17.5091 47.5632 18.3203 46.916 19.0312C46.278 19.7422 45.5215 20.3027 44.6465 20.7129C43.7715 21.1139 42.8008 21.3008 41.7344 21.2734C40.7044 21.2552 39.8158 21.0365 39.0684 20.6172C38.3301 20.1888 37.7331 19.6237 37.2773 18.9219C36.8216 18.2201 36.5026 17.4316 36.3203 16.5566C36.138 15.6816 36.0879 14.7793 36.1699 13.8496ZM38.6719 13.5352L38.6445 13.8633C38.5807 14.4375 38.5762 15.0345 38.6309 15.6543C38.6947 16.2741 38.8405 16.8483 39.0684 17.377C39.3053 17.9056 39.6471 18.3385 40.0938 18.6758C40.5404 19.013 41.1191 19.1908 41.8301 19.209C42.5866 19.2272 43.252 19.0814 43.8262 18.7715C44.4004 18.4525 44.888 18.0241 45.2891 17.4863C45.6992 16.9486 46.0228 16.3516 46.2598 15.6953C46.5059 15.0391 46.6699 14.3874 46.752 13.7402L46.7793 13.4258C46.8431 12.8516 46.8431 12.2546 46.7793 11.6348C46.7246 11.0059 46.5788 10.4225 46.3418 9.88477C46.1139 9.33789 45.7767 8.89583 45.3301 8.55859C44.8835 8.21224 44.3047 8.02995 43.5938 8.01172C42.8372 7.98438 42.1673 8.13477 41.584 8.46289C41.0098 8.7819 40.5221 9.21484 40.1211 9.76172C39.7201 10.3086 39.3965 10.9147 39.1504 11.5801C38.9134 12.2363 38.7539 12.888 38.6719 13.5352ZM55.5566 9.20117L52.5215 26.6875H50.0332L53.5879 6.20703H55.8574L55.5566 9.20117ZM64.457 13.3984L64.4297 13.6855C64.3112 14.5788 64.0924 15.4811 63.7734 16.3926C63.4635 17.2949 63.0397 18.1198 62.502 18.8672C61.9642 19.6146 61.3034 20.2116 60.5195 20.6582C59.7448 21.1048 58.8333 21.3145 57.7852 21.2871C56.8646 21.2689 56.0762 21.0684 55.4199 20.6855C54.7637 20.2936 54.235 19.7786 53.834 19.1406C53.4329 18.4935 53.1458 17.7734 52.9727 16.9805C52.8086 16.1784 52.7539 15.3581 52.8086 14.5195L53 13.002C53.1549 12.1087 53.4147 11.2383 53.7793 10.3906C54.153 9.53385 54.627 8.76367 55.2012 8.08008C55.7754 7.39648 56.4544 6.86328 57.2383 6.48047C58.0312 6.08854 58.929 5.90625 59.9316 5.93359C60.9434 5.96094 61.7637 6.20703 62.3926 6.67188C63.0306 7.1276 63.5137 7.72461 63.8418 8.46289C64.179 9.19206 64.3887 9.98958 64.4707 10.8555C64.5527 11.7122 64.5482 12.5599 64.457 13.3984ZM61.9414 13.6719L61.9824 13.3711C62.0462 12.8242 62.0599 12.2454 62.0234 11.6348C61.9961 11.0241 61.8822 10.4544 61.6816 9.92578C61.4902 9.38802 61.1849 8.94596 60.7656 8.59961C60.3555 8.25326 59.7949 8.07096 59.084 8.05273C58.5189 8.03451 57.9811 8.13021 57.4707 8.33984C56.9694 8.54036 56.5137 8.82747 56.1035 9.20117C55.6934 9.56576 55.3424 9.98958 55.0508 10.4727C54.7591 10.9466 54.5449 11.4479 54.4082 11.9766L53.8203 15.5449C53.8112 16.1921 53.9525 16.7936 54.2441 17.3496C54.5358 17.8965 54.9323 18.3385 55.4336 18.6758C55.944 19.013 56.5228 19.1908 57.1699 19.209C57.9264 19.2272 58.5827 19.0768 59.1387 18.7578C59.7038 18.4297 60.1777 17.9922 60.5605 17.4453C60.9434 16.8893 61.2487 16.2832 61.4766 15.627C61.7044 14.9616 61.8594 14.3099 61.9414 13.6719ZM79.5918 1.09375L76.1328 21H73.5488L77.0078 1.09375H79.5918ZM86.127 10.0488L85.7441 12.209H77.0762L77.459 10.0488H86.127ZM88.9844 1.09375L88.6016 3.25391H78.6348L79.0176 1.09375H88.9844ZM96.5312 3.00781L87.0703 21H84.3223L95.1504 1.09375H96.9141L96.5312 3.00781ZM98.8008 21L95.5059 2.70703L95.7656 1.09375H97.4062L101.33 21H98.8008ZM99.7168 13.6309L99.334 15.791H88.4648L88.8477 13.6309H99.7168ZM122.289 1.09375L118.83 21H116.328L109.219 5.53711L106.539 21H103.955L107.414 1.09375H109.902L117.039 16.5977L119.732 1.09375H122.289ZM136.043 14.6836L138.572 14.6562C138.299 16.0234 137.784 17.2083 137.027 18.2109C136.28 19.2135 135.337 19.9837 134.197 20.5215C133.067 21.0592 131.8 21.3099 130.396 21.2734C129.139 21.2461 128.081 20.959 127.225 20.4121C126.377 19.8652 125.712 19.1452 125.229 18.252C124.755 17.3587 124.44 16.3743 124.285 15.2988C124.139 14.2233 124.139 13.1387 124.285 12.0449L124.572 10.0625C124.755 8.85938 125.083 7.70182 125.557 6.58984C126.04 5.46875 126.664 4.4707 127.43 3.5957C128.204 2.7207 129.116 2.03255 130.164 1.53125C131.221 1.02995 132.42 0.792969 133.76 0.820312C135.1 0.847656 136.221 1.14844 137.123 1.72266C138.025 2.29688 138.709 3.08073 139.174 4.07422C139.648 5.06771 139.903 6.20703 139.939 7.49219H137.396C137.369 6.65365 137.237 5.89714 137 5.22266C136.763 4.54818 136.376 4.01042 135.838 3.60938C135.3 3.20833 134.571 2.99414 133.65 2.9668C132.648 2.93945 131.768 3.1263 131.012 3.52734C130.264 3.92839 129.626 4.47526 129.098 5.16797C128.569 5.85156 128.145 6.61719 127.826 7.46484C127.507 8.3125 127.279 9.16927 127.143 10.0352L126.842 12.0586C126.742 12.7786 126.705 13.5443 126.732 14.3555C126.76 15.1576 126.892 15.9186 127.129 16.6387C127.375 17.3496 127.767 17.9375 128.305 18.4023C128.852 18.8581 129.59 19.0996 130.52 19.127C131.54 19.1634 132.411 19.0039 133.131 18.6484C133.851 18.293 134.448 17.778 134.922 17.1035C135.396 16.4199 135.77 15.6133 136.043 14.6836ZM145.326 1.09375L148.594 11.0742L155.348 1.09375H158.424L149.496 13.6992L148.225 21H145.654L146.98 13.4121L142.523 1.09375H145.326ZM163.387 1.09375L160.734 15.3809H158.492L160.789 1.09375H163.387ZM157.48 19.7695C157.49 19.3411 157.626 18.9857 157.891 18.7031C158.164 18.4115 158.515 18.2611 158.943 18.252C159.363 18.2428 159.709 18.375 159.982 18.6484C160.265 18.9219 160.402 19.2682 160.393 19.6875C160.393 20.1068 160.251 20.4577 159.969 20.7402C159.695 21.0228 159.349 21.1686 158.93 21.1777C158.51 21.1868 158.164 21.0592 157.891 20.7949C157.617 20.5306 157.48 20.1888 157.48 19.7695Z"/>
</mask>
<path d="M15.9766 15.873C16.0586 15.2715 15.9993 14.7702 15.7988 14.3691C15.5983 13.959 15.3066 13.6172 14.9238 13.3438C14.541 13.0612 14.1126 12.8288 13.6387 12.6465C13.1647 12.4551 12.6908 12.2773 12.2168 12.1133C11.5332 11.8763 10.8587 11.5983 10.1934 11.2793C9.53711 10.9603 8.94466 10.5775 8.41602 10.1309C7.88737 9.67513 7.47266 9.13737 7.17188 8.51758C6.88021 7.89779 6.76628 7.17318 6.83008 6.34375C6.90299 5.42318 7.16276 4.61654 7.60938 3.92383C8.05599 3.22201 8.62565 2.63867 9.31836 2.17383C10.0111 1.70898 10.7721 1.36263 11.6016 1.13477C12.431 0.906901 13.2695 0.802083 14.1172 0.820312C15.293 0.847656 16.3457 1.11198 17.2754 1.61328C18.2051 2.10547 18.9297 2.79818 19.4492 3.69141C19.9688 4.58464 20.1966 5.63737 20.1328 6.84961L17.5625 6.83594C17.6263 6.04297 17.526 5.36393 17.2617 4.79883C16.9974 4.22461 16.5872 3.78255 16.0312 3.47266C15.4844 3.16276 14.8099 2.9987 14.0078 2.98047C13.2786 2.96224 12.5814 3.07161 11.916 3.30859C11.2598 3.54557 10.7038 3.91471 10.248 4.41602C9.79232 4.9082 9.51432 5.54167 9.41406 6.31641C9.34115 6.85417 9.41406 7.31445 9.63281 7.69727C9.85156 8.08008 10.1523 8.40365 10.5352 8.66797C10.9271 8.93229 11.3509 9.1556 11.8066 9.33789C12.2715 9.52018 12.7135 9.67969 13.1328 9.81641C13.862 10.0625 14.5638 10.3542 15.2383 10.6914C15.9219 11.0195 16.5234 11.4206 17.043 11.8945C17.5716 12.3594 17.9727 12.9154 18.2461 13.5625C18.5286 14.2096 18.6335 14.9707 18.5605 15.8457C18.4785 16.7936 18.2096 17.6139 17.7539 18.3066C17.2982 18.9993 16.7148 19.569 16.0039 20.0156C15.293 20.4531 14.5137 20.7767 13.666 20.9863C12.8184 21.196 11.9661 21.2917 11.1094 21.2734C10.2161 21.2643 9.36849 21.123 8.56641 20.8496C7.77344 20.5671 7.07161 20.166 6.46094 19.6465C5.85026 19.127 5.38086 18.498 5.05273 17.7598C4.72461 17.0124 4.58333 16.1647 4.62891 15.2168L7.18555 15.2305C7.13997 15.8685 7.20833 16.429 7.39062 16.9121C7.57292 17.3952 7.84635 17.8008 8.21094 18.1289C8.58464 18.4479 9.02669 18.694 9.53711 18.8672C10.0475 19.0312 10.6081 19.1178 11.2188 19.127C11.9388 19.1452 12.6406 19.0449 13.3242 18.8262C14.0169 18.6074 14.6048 18.2565 15.0879 17.7734C15.571 17.2904 15.8672 16.6569 15.9766 15.873ZM26.6953 0L23.0449 21H20.5703L24.2207 0H26.6953ZM23.8926 13.043L22.8809 13.0156C23.0085 12.1315 23.2409 11.2656 23.5781 10.418C23.9245 9.5612 24.3757 8.79102 24.9316 8.10742C25.4967 7.42383 26.1667 6.88607 26.9414 6.49414C27.7253 6.0931 28.6185 5.90625 29.6211 5.93359C30.4141 5.95182 31.0749 6.10677 31.6035 6.39844C32.1413 6.68099 32.5605 7.06836 32.8613 7.56055C33.1621 8.05273 33.3626 8.6224 33.4629 9.26953C33.5632 9.90755 33.5723 10.5866 33.4902 11.3066L31.877 21H29.3887L31.0293 11.2656C31.0931 10.6732 31.0703 10.14 30.9609 9.66602C30.8607 9.18294 30.6328 8.80013 30.2773 8.51758C29.931 8.22591 29.4297 8.07096 28.7734 8.05273C28.0807 8.03451 27.4564 8.16667 26.9004 8.44922C26.3444 8.73177 25.8568 9.11914 25.4375 9.61133C25.0273 10.0944 24.6901 10.6367 24.4258 11.2383C24.1706 11.8307 23.9928 12.4323 23.8926 13.043ZM36.1699 13.8496L36.2109 13.5352C36.3203 12.5417 36.5664 11.5846 36.9492 10.6641C37.3411 9.74349 37.8561 8.92318 38.4941 8.20312C39.1322 7.48307 39.8887 6.91797 40.7637 6.50781C41.6387 6.09766 42.6139 5.90625 43.6895 5.93359C44.7285 5.95182 45.6172 6.17513 46.3555 6.60352C47.1029 7.0319 47.7044 7.60156 48.1602 8.3125C48.625 9.01432 48.9486 9.80729 49.1309 10.6914C49.3132 11.5755 49.3587 12.487 49.2676 13.4258L49.2402 13.7402C49.1217 14.7337 48.8665 15.6862 48.4746 16.5977C48.0827 17.5091 47.5632 18.3203 46.916 19.0312C46.278 19.7422 45.5215 20.3027 44.6465 20.7129C43.7715 21.1139 42.8008 21.3008 41.7344 21.2734C40.7044 21.2552 39.8158 21.0365 39.0684 20.6172C38.3301 20.1888 37.7331 19.6237 37.2773 18.9219C36.8216 18.2201 36.5026 17.4316 36.3203 16.5566C36.138 15.6816 36.0879 14.7793 36.1699 13.8496ZM38.6719 13.5352L38.6445 13.8633C38.5807 14.4375 38.5762 15.0345 38.6309 15.6543C38.6947 16.2741 38.8405 16.8483 39.0684 17.377C39.3053 17.9056 39.6471 18.3385 40.0938 18.6758C40.5404 19.013 41.1191 19.1908 41.8301 19.209C42.5866 19.2272 43.252 19.0814 43.8262 18.7715C44.4004 18.4525 44.888 18.0241 45.2891 17.4863C45.6992 16.9486 46.0228 16.3516 46.2598 15.6953C46.5059 15.0391 46.6699 14.3874 46.752 13.7402L46.7793 13.4258C46.8431 12.8516 46.8431 12.2546 46.7793 11.6348C46.7246 11.0059 46.5788 10.4225 46.3418 9.88477C46.1139 9.33789 45.7767 8.89583 45.3301 8.55859C44.8835 8.21224 44.3047 8.02995 43.5938 8.01172C42.8372 7.98438 42.1673 8.13477 41.584 8.46289C41.0098 8.7819 40.5221 9.21484 40.1211 9.76172C39.7201 10.3086 39.3965 10.9147 39.1504 11.5801C38.9134 12.2363 38.7539 12.888 38.6719 13.5352ZM55.5566 9.20117L52.5215 26.6875H50.0332L53.5879 6.20703H55.8574L55.5566 9.20117ZM64.457 13.3984L64.4297 13.6855C64.3112 14.5788 64.0924 15.4811 63.7734 16.3926C63.4635 17.2949 63.0397 18.1198 62.502 18.8672C61.9642 19.6146 61.3034 20.2116 60.5195 20.6582C59.7448 21.1048 58.8333 21.3145 57.7852 21.2871C56.8646 21.2689 56.0762 21.0684 55.4199 20.6855C54.7637 20.2936 54.235 19.7786 53.834 19.1406C53.4329 18.4935 53.1458 17.7734 52.9727 16.9805C52.8086 16.1784 52.7539 15.3581 52.8086 14.5195L53 13.002C53.1549 12.1087 53.4147 11.2383 53.7793 10.3906C54.153 9.53385 54.627 8.76367 55.2012 8.08008C55.7754 7.39648 56.4544 6.86328 57.2383 6.48047C58.0312 6.08854 58.929 5.90625 59.9316 5.93359C60.9434 5.96094 61.7637 6.20703 62.3926 6.67188C63.0306 7.1276 63.5137 7.72461 63.8418 8.46289C64.179 9.19206 64.3887 9.98958 64.4707 10.8555C64.5527 11.7122 64.5482 12.5599 64.457 13.3984ZM61.9414 13.6719L61.9824 13.3711C62.0462 12.8242 62.0599 12.2454 62.0234 11.6348C61.9961 11.0241 61.8822 10.4544 61.6816 9.92578C61.4902 9.38802 61.1849 8.94596 60.7656 8.59961C60.3555 8.25326 59.7949 8.07096 59.084 8.05273C58.5189 8.03451 57.9811 8.13021 57.4707 8.33984C56.9694 8.54036 56.5137 8.82747 56.1035 9.20117C55.6934 9.56576 55.3424 9.98958 55.0508 10.4727C54.7591 10.9466 54.5449 11.4479 54.4082 11.9766L53.8203 15.5449C53.8112 16.1921 53.9525 16.7936 54.2441 17.3496C54.5358 17.8965 54.9323 18.3385 55.4336 18.6758C55.944 19.013 56.5228 19.1908 57.1699 19.209C57.9264 19.2272 58.5827 19.0768 59.1387 18.7578C59.7038 18.4297 60.1777 17.9922 60.5605 17.4453C60.9434 16.8893 61.2487 16.2832 61.4766 15.627C61.7044 14.9616 61.8594 14.3099 61.9414 13.6719ZM79.5918 1.09375L76.1328 21H73.5488L77.0078 1.09375H79.5918ZM86.127 10.0488L85.7441 12.209H77.0762L77.459 10.0488H86.127ZM88.9844 1.09375L88.6016 3.25391H78.6348L79.0176 1.09375H88.9844ZM96.5312 3.00781L87.0703 21H84.3223L95.1504 1.09375H96.9141L96.5312 3.00781ZM98.8008 21L95.5059 2.70703L95.7656 1.09375H97.4062L101.33 21H98.8008ZM99.7168 13.6309L99.334 15.791H88.4648L88.8477 13.6309H99.7168ZM122.289 1.09375L118.83 21H116.328L109.219 5.53711L106.539 21H103.955L107.414 1.09375H109.902L117.039 16.5977L119.732 1.09375H122.289ZM136.043 14.6836L138.572 14.6562C138.299 16.0234 137.784 17.2083 137.027 18.2109C136.28 19.2135 135.337 19.9837 134.197 20.5215C133.067 21.0592 131.8 21.3099 130.396 21.2734C129.139 21.2461 128.081 20.959 127.225 20.4121C126.377 19.8652 125.712 19.1452 125.229 18.252C124.755 17.3587 124.44 16.3743 124.285 15.2988C124.139 14.2233 124.139 13.1387 124.285 12.0449L124.572 10.0625C124.755 8.85938 125.083 7.70182 125.557 6.58984C126.04 5.46875 126.664 4.4707 127.43 3.5957C128.204 2.7207 129.116 2.03255 130.164 1.53125C131.221 1.02995 132.42 0.792969 133.76 0.820312C135.1 0.847656 136.221 1.14844 137.123 1.72266C138.025 2.29688 138.709 3.08073 139.174 4.07422C139.648 5.06771 139.903 6.20703 139.939 7.49219H137.396C137.369 6.65365 137.237 5.89714 137 5.22266C136.763 4.54818 136.376 4.01042 135.838 3.60938C135.3 3.20833 134.571 2.99414 133.65 2.9668C132.648 2.93945 131.768 3.1263 131.012 3.52734C130.264 3.92839 129.626 4.47526 129.098 5.16797C128.569 5.85156 128.145 6.61719 127.826 7.46484C127.507 8.3125 127.279 9.16927 127.143 10.0352L126.842 12.0586C126.742 12.7786 126.705 13.5443 126.732 14.3555C126.76 15.1576 126.892 15.9186 127.129 16.6387C127.375 17.3496 127.767 17.9375 128.305 18.4023C128.852 18.8581 129.59 19.0996 130.52 19.127C131.54 19.1634 132.411 19.0039 133.131 18.6484C133.851 18.293 134.448 17.778 134.922 17.1035C135.396 16.4199 135.77 15.6133 136.043 14.6836ZM145.326 1.09375L148.594 11.0742L155.348 1.09375H158.424L149.496 13.6992L148.225 21H145.654L146.98 13.4121L142.523 1.09375H145.326ZM163.387 1.09375L160.734 15.3809H158.492L160.789 1.09375H163.387ZM157.48 19.7695C157.49 19.3411 157.626 18.9857 157.891 18.7031C158.164 18.4115 158.515 18.2611 158.943 18.252C159.363 18.2428 159.709 18.375 159.982 18.6484C160.265 18.9219 160.402 19.2682 160.393 19.6875C160.393 20.1068 160.251 20.4577 159.969 20.7402C159.695 21.0228 159.349 21.1686 158.93 21.1777C158.51 21.1868 158.164 21.0592 157.891 20.7949C157.617 20.5306 157.48 20.1888 157.48 19.7695Z" fill="white"/>
<path d="M15.9766 15.873L16.967 16.0112L16.9674 16.0082L15.9766 15.873ZM15.7988 14.3691L14.9004 14.8084L14.9044 14.8164L15.7988 14.3691ZM14.9238 13.3438L14.33 14.1483L14.3362 14.153L14.3426 14.1575L14.9238 13.3438ZM13.6387 12.6465L13.2642 13.5737L13.2719 13.5768L13.2797 13.5798L13.6387 12.6465ZM12.2168 12.1133L11.8893 13.0581L11.8897 13.0583L12.2168 12.1133ZM10.1934 11.2793L9.75616 12.1787L9.76103 12.181L10.1934 11.2793ZM8.41602 10.1309L7.76304 10.8883L7.77066 10.8947L8.41602 10.1309ZM7.17188 8.51758L6.26699 8.94341L6.27222 8.95418L7.17188 8.51758ZM6.83008 6.34375L5.8332 6.26479L5.83302 6.26705L6.83008 6.34375ZM7.60938 3.92383L8.44985 4.46571L8.45304 4.4607L7.60938 3.92383ZM14.1172 0.820312L14.1404 -0.179419L14.1387 -0.179456L14.1172 0.820312ZM17.2754 1.61328L16.8008 2.4935L16.8075 2.49707L17.2754 1.61328ZM20.1328 6.84961L20.1275 7.8496L21.0813 7.85467L21.1314 6.90217L20.1328 6.84961ZM17.5625 6.83594L16.5657 6.75574L16.4793 7.83019L17.5572 7.83592L17.5625 6.83594ZM17.2617 4.79883L16.3533 5.21698L16.3559 5.22251L17.2617 4.79883ZM16.0312 3.47266L15.5382 4.3427L15.5444 4.34614L16.0312 3.47266ZM14.0078 2.98047L13.9828 3.98016L13.9851 3.98021L14.0078 2.98047ZM11.916 3.30859L11.5805 2.36655L11.5764 2.36804L11.916 3.30859ZM10.248 4.41602L10.9818 5.09545L10.988 5.08869L10.248 4.41602ZM9.41406 6.31641L10.405 6.45077L10.4058 6.44475L9.41406 6.31641ZM10.5352 8.66797L9.96693 9.49092L9.97601 9.49704L10.5352 8.66797ZM11.8066 9.33789L11.4352 10.2664L11.4416 10.2689L11.8066 9.33789ZM13.1328 9.81641L13.4526 8.86886L13.4428 8.86568L13.1328 9.81641ZM15.2383 10.6914L14.7911 11.5858L14.7983 11.5894L14.8056 11.5929L15.2383 10.6914ZM17.043 11.8945L16.369 12.6333L16.3758 12.6395L16.3826 12.6455L17.043 11.8945ZM18.2461 13.5625L17.3249 13.9517L17.3296 13.9626L18.2461 13.5625ZM18.5605 15.8457L19.5568 15.9319L19.5571 15.9287L18.5605 15.8457ZM17.7539 18.3066L18.5893 18.8563L17.7539 18.3066ZM16.0039 20.0156L16.528 20.8673L16.5359 20.8624L16.0039 20.0156ZM11.1094 21.2734L11.1306 20.2736L11.1196 20.2735L11.1094 21.2734ZM8.56641 20.8496L8.23072 21.7917L8.24373 21.7961L8.56641 20.8496ZM5.05273 17.7598L4.13708 18.1618L4.13892 18.1659L5.05273 17.7598ZM4.62891 15.2168L4.63425 14.2168L3.67607 14.2117L3.63006 15.1688L4.62891 15.2168ZM7.18555 15.2305L8.18301 15.3017L8.25911 14.2362L7.19089 14.2305L7.18555 15.2305ZM7.39062 16.9121L8.32623 16.5591L7.39062 16.9121ZM8.21094 18.1289L7.54197 18.8722L7.55171 18.881L7.56168 18.8895L8.21094 18.1289ZM9.53711 18.8672L9.21581 19.8142L9.22344 19.8168L9.2311 19.8192L9.53711 18.8672ZM11.2188 19.127L11.2441 18.1272L11.2337 18.1271L11.2188 19.127ZM13.3242 18.8262L13.0231 17.8726L13.0194 17.8737L13.3242 18.8262ZM15.0879 17.7734L14.3808 17.0663L15.0879 17.7734ZM16.9674 16.0082C17.0672 15.2762 17.0106 14.5565 16.6933 13.9219L14.9044 14.8164C14.9881 14.9838 15.05 15.2668 14.9857 15.7379L16.9674 16.0082ZM16.6972 13.9299C16.4215 13.3659 16.0188 12.897 15.5051 12.53L14.3426 14.1575C14.5945 14.3374 14.7752 14.5521 14.9004 14.8084L16.6972 13.9299ZM15.5177 12.5392C15.058 12.1999 14.5497 11.9255 13.9977 11.7131L13.2797 13.5798C13.6756 13.7321 14.024 13.9225 14.33 14.1483L15.5177 12.5392ZM14.0131 11.7192C13.5238 11.5216 13.0341 11.338 12.5439 11.1683L11.8897 13.0583C12.3474 13.2167 12.8056 13.3885 13.2642 13.5737L14.0131 11.7192ZM12.5443 11.1684C11.8972 10.9441 11.2576 10.6806 10.6257 10.3776L9.76103 12.181C10.4598 12.516 11.1692 12.8085 11.8893 13.0581L12.5443 11.1684ZM10.6306 10.3799C10.045 10.0953 9.52317 9.75712 9.06137 9.36697L7.77066 10.8947C8.36615 11.3978 9.02923 11.8253 9.75617 12.1787L10.6306 10.3799ZM9.06896 9.37345C8.64216 9.00552 8.312 8.57649 8.07153 8.08098L6.27222 8.95418C6.63331 9.69825 7.13258 10.3447 7.76308 10.8883L9.06896 9.37345ZM8.07669 8.09178C7.87305 7.65905 7.77378 7.11409 7.82713 6.42045L5.83302 6.26705C5.75878 7.23227 5.88736 8.13653 6.26706 8.94338L8.07669 8.09178ZM7.82696 6.42271C7.88841 5.64683 8.10319 5.00335 8.44983 4.4657L6.76892 3.38195C6.22233 4.22972 5.91758 5.19952 5.8332 6.26479L7.82696 6.42271ZM8.45304 4.4607C8.82526 3.87579 9.29727 3.39227 9.87558 3.00419L8.76114 1.34346C7.95403 1.88507 7.28672 2.56822 6.76571 3.38695L8.45304 4.4607ZM9.87558 3.00419C10.4759 2.60132 11.1378 2.29923 11.8665 2.09904L11.3367 0.170493C10.4065 0.426035 9.5462 0.816646 8.76114 1.34346L9.87558 3.00419ZM11.8665 2.09904C12.604 1.89642 13.3461 1.80396 14.0957 1.82008L14.1387 -0.179456C13.1929 -0.199795 12.258 -0.0826143 11.3367 0.170493L11.8665 2.09904ZM14.0939 1.82004C15.1301 1.84414 16.0251 2.07524 16.8008 2.49348L17.75 0.733087C16.6663 0.148716 15.4559 -0.148826 14.1404 -0.179417L14.0939 1.82004ZM16.8075 2.49707C17.5751 2.90347 18.161 3.46556 18.5848 4.19418L20.3136 3.18863C19.6984 2.13079 18.835 1.30747 17.7433 0.729493L16.8075 2.49707ZM18.5848 4.19418C18.9905 4.89164 19.1896 5.74443 19.1342 6.79705L21.1314 6.90217C21.2036 5.53031 20.947 4.27763 20.3136 3.18863L18.5848 4.19418ZM20.1381 5.84962L17.5678 5.83595L17.5572 7.83592L20.1275 7.8496L20.1381 5.84962ZM18.5593 6.91614C18.6332 5.99683 18.523 5.13505 18.1675 4.37514L16.3559 5.22251C16.5291 5.59282 16.6194 6.0891 16.5657 6.75574L18.5593 6.91614ZM18.1701 4.38068C17.8164 3.6124 17.2579 3.01154 16.5181 2.59918L15.5444 4.34614C15.9165 4.55356 16.1783 4.83682 16.3533 5.21697L18.1701 4.38068ZM16.5243 2.60263C15.7994 2.1919 14.9532 2.0017 14.0305 1.98073L13.9851 3.98021C14.6666 3.9957 15.1693 4.13362 15.5382 4.34268L16.5243 2.60263ZM14.0328 1.98078C13.185 1.95959 12.3653 2.08706 11.5805 2.36656L12.2515 4.25063C12.7975 4.05617 13.3723 3.96489 13.9828 3.98016L14.0328 1.98078ZM11.5764 2.36804C10.7716 2.65865 10.0768 3.11778 9.50811 3.74334L10.988 5.08869C11.3308 4.71165 11.7479 4.4325 12.2557 4.24915L11.5764 2.36804ZM9.51429 3.73661C8.8952 4.40522 8.54473 5.24229 8.42233 6.18806L10.4058 6.44475C10.4839 5.84105 10.6894 5.41119 10.9818 5.09542L9.51429 3.73661ZM8.42313 6.18204C8.32764 6.88629 8.41347 7.57898 8.76457 8.1934L10.5011 7.20113C10.4147 7.04992 10.3547 6.82205 10.405 6.45077L8.42313 6.18204ZM8.76457 8.1934C9.06169 8.71337 9.46789 9.14626 9.96697 9.49087L11.1033 7.84507C10.8368 7.66103 10.6414 7.44678 10.5011 7.20113L8.76457 8.1934ZM9.97601 9.49704C10.429 9.80256 10.9161 10.0587 11.4352 10.2664L12.178 8.40941C11.7857 8.25249 11.4251 8.06202 11.0943 7.8389L9.97601 9.49704ZM11.4416 10.2689C11.9222 10.4574 12.3827 10.6236 12.8228 10.7671L13.4428 8.86568C13.0443 8.73573 12.6207 8.583 12.1717 8.40692L11.4416 10.2689ZM12.813 10.7639C13.4994 10.9956 14.1586 11.2696 14.7911 11.5858L15.6855 9.79698C14.969 9.43872 14.2245 9.12944 13.4526 8.86891L12.813 10.7639ZM14.8056 11.5929C15.4081 11.8821 15.9269 12.23 16.369 12.6333L17.7169 11.1558C17.1199 10.6111 16.4357 10.1569 15.671 9.78988L14.8056 11.5929ZM16.3826 12.6455C16.7985 13.0111 17.1102 13.4436 17.3249 13.9517L19.1672 13.1733C18.8351 12.3872 18.3448 11.7076 17.7033 11.1436L16.3826 12.6455ZM17.3296 13.9626C17.5316 14.4252 17.6264 15.0133 17.564 15.7627L19.5571 15.9287C19.6405 14.9281 19.5257 13.9941 19.1625 13.1624L17.3296 13.9626ZM17.5643 15.7595C17.4944 16.5666 17.2703 17.2223 16.9185 17.757L18.5893 18.8563C19.149 18.0056 19.4626 17.0206 19.5568 15.9319L17.5643 15.7595ZM16.9185 17.757C16.5425 18.3286 16.0632 18.7974 15.472 19.1688L16.5359 20.8624C17.3665 20.3406 18.0539 19.6701 18.5893 18.8563L16.9185 17.757ZM15.4798 19.164C14.8608 19.5449 14.178 19.8296 13.4259 20.0156L13.9061 21.9571C14.8494 21.7238 15.7251 21.3614 16.528 20.8673L15.4798 19.164ZM13.4259 20.0156C12.6621 20.2045 11.8977 20.29 11.1306 20.2737L11.0881 22.2732C12.0346 22.2933 12.9746 22.1874 13.9061 21.9571L13.4259 20.0156ZM11.1196 20.2735C10.3269 20.2654 9.58518 20.1404 8.88908 19.9031L8.24373 21.7961C9.1518 22.1057 10.1054 22.2632 11.0992 22.2734L11.1196 20.2735ZM8.90206 19.9076C8.21749 19.6637 7.62272 19.3219 7.10892 18.8848L5.81296 20.4081C6.52051 21.0101 7.32938 21.4704 8.23076 21.7916L8.90206 19.9076ZM7.10892 18.8848C6.61327 18.4632 6.2343 17.9561 5.96655 17.3536L4.13892 18.1659C4.52742 19.04 5.08725 19.7908 5.81296 20.4081L7.10892 18.8848ZM5.96838 17.3578C5.71177 16.7733 5.5884 16.0834 5.62775 15.2648L3.63006 15.1688C3.57827 16.246 3.73745 17.2515 4.13709 18.1618L5.96838 17.3578ZM4.62356 16.2168L7.1802 16.2305L7.19089 14.2305L4.63425 14.2168L4.62356 16.2168ZM6.18809 15.1592C6.13461 15.9079 6.21099 16.6185 6.45502 17.2652L8.32623 16.5591C8.20567 16.2396 8.14534 15.8291 8.18301 15.3017L6.18809 15.1592ZM6.45502 17.2652C6.69067 17.8896 7.05232 18.4315 7.54197 18.8722L8.8799 17.3856C8.64038 17.17 8.45516 16.9007 8.32623 16.5591L6.45502 17.2652ZM7.56168 18.8895C8.04084 19.2985 8.59692 19.6042 9.21581 19.8142L9.85841 17.9202C9.45646 17.7838 9.12843 17.5973 8.8602 17.3683L7.56168 18.8895ZM9.2311 19.8192C9.84769 20.0174 10.5078 20.1165 11.2038 20.1268L11.2337 18.1271C10.7084 18.1192 10.2474 18.0451 9.84312 17.9152L9.2311 19.8192ZM11.1934 20.1266C12.025 20.1477 12.8384 20.0316 13.629 19.7786L13.0194 17.8737C12.4428 18.0583 11.8526 18.1427 11.2441 18.1273L11.1934 20.1266ZM13.6254 19.7798C14.4612 19.5158 15.1912 19.0844 15.795 18.4805L14.3808 17.0663C14.0184 17.4287 13.5726 17.6991 13.0231 17.8726L13.6254 19.7798ZM15.795 18.4805C16.4554 17.8201 16.8325 16.975 16.967 16.0112L14.9862 15.7349C14.9019 16.3388 14.6865 16.7606 14.3808 17.0663L15.795 18.4805ZM26.6953 0L27.6805 0.17126L27.8841 -1H26.6953V0ZM23.0449 21V22H23.8861L24.0301 21.1713L23.0449 21ZM20.5703 21L19.5851 20.8287L19.3815 22H20.5703V21ZM24.2207 0V-1H23.3795L23.2355 -0.17126L24.2207 0ZM23.8926 13.043L23.8656 14.0426L24.738 14.0662L24.8794 13.205L23.8926 13.043ZM22.8809 13.0156L21.8911 12.8728L21.7306 13.9849L22.8538 14.0153L22.8809 13.0156ZM23.5781 10.418L22.651 10.0432L22.649 10.0483L23.5781 10.418ZM24.9316 8.10742L24.1609 7.47025L24.1558 7.47644L24.9316 8.10742ZM26.9414 6.49414L27.3928 7.38647L27.3969 7.38439L26.9414 6.49414ZM29.6211 5.93359L29.5938 6.93323L29.5981 6.93333L29.6211 5.93359ZM31.6035 6.39844L31.1204 7.27402L31.1294 7.27894L31.1384 7.28368L31.6035 6.39844ZM33.4629 9.26953L32.4747 9.42263L32.475 9.42477L33.4629 9.26953ZM33.4902 11.3066L34.4767 11.4708L34.4809 11.4454L34.4838 11.4198L33.4902 11.3066ZM31.877 21V22H32.7243L32.8634 21.1642L31.877 21ZM29.3887 21L28.4026 20.8338L28.206 22H29.3887V21ZM31.0293 11.2656L32.0154 11.4318L32.0204 11.4024L32.0235 11.3727L31.0293 11.2656ZM30.9609 9.66602L29.9818 9.86923L29.9841 9.88008L29.9865 9.89088L30.9609 9.66602ZM30.2773 8.51758L29.6332 9.28249L29.644 9.2916L29.6551 9.3004L30.2773 8.51758ZM28.7734 8.05273L28.8012 7.05312L28.7997 7.05308L28.7734 8.05273ZM25.4375 9.61133L24.6763 8.96286L24.6752 8.9641L25.4375 9.61133ZM24.4258 11.2383L23.5102 10.836L23.5074 10.8427L24.4258 11.2383ZM25.7101 -0.17126L22.0597 20.8287L24.0301 21.1713L27.6805 0.17126L25.7101 -0.17126ZM23.0449 20H20.5703V22H23.0449V20ZM21.5555 21.1713L25.2059 0.17126L23.2355 -0.17126L19.5851 20.8287L21.5555 21.1713ZM24.2207 1H26.6953V-1H24.2207V1ZM23.9196 12.0433L22.9079 12.016L22.8538 14.0153L23.8656 14.0426L23.9196 12.0433ZM23.8706 13.1585C23.9868 12.3537 24.1985 11.5639 24.5073 10.7876L22.649 10.0483C22.2833 10.9674 22.0302 11.9093 21.8911 12.8728L23.8706 13.1585ZM24.5052 10.7928C24.816 10.0239 25.2174 9.34092 25.7074 8.7384L24.1558 7.47644C23.5339 8.24111 23.0329 9.09847 22.651 10.0432L24.5052 10.7928ZM25.7024 8.74457C26.1817 8.16476 26.7436 7.71486 27.3928 7.38646L26.49 5.60182C25.5897 6.05727 24.8118 6.68289 24.1609 7.47027L25.7024 8.74457ZM27.3969 7.38439C28.0118 7.06976 28.7352 6.9098 29.5938 6.93322L29.6484 4.93397C28.5018 4.9027 27.4387 5.11644 26.4859 5.60389L27.3969 7.38439ZM29.5981 6.93333C30.2787 6.94897 30.7702 7.08076 31.1204 7.27402L32.0866 5.52286C31.3796 5.13278 30.5494 4.95467 29.6441 4.93386L29.5981 6.93333ZM31.1384 7.28368C31.5251 7.48689 31.8065 7.75222 32.008 8.082L33.7146 7.0391C33.3146 6.3845 32.7574 5.87509 32.0686 5.51319L31.1384 7.28368ZM32.008 8.082C32.2313 8.44728 32.3919 8.88842 32.4747 9.42263L34.4511 9.11643C34.3333 8.35637 34.0929 7.65819 33.7146 7.0391L32.008 8.082ZM32.475 9.42477C32.5597 9.96391 32.5697 10.552 32.4967 11.1934L34.4838 11.4198C34.5748 10.6212 34.5666 9.85119 34.4508 9.11429L32.475 9.42477ZM32.5038 11.1425L30.8905 20.8358L32.8634 21.1642L34.4767 11.4708L32.5038 11.1425ZM31.877 20H29.3887V22H31.877V20ZM30.3748 21.1662L32.0154 11.4318L30.0432 11.0994L28.4026 20.8338L30.3748 21.1662ZM32.0235 11.3727C32.0967 10.6934 32.0747 10.0452 31.9353 9.44116L29.9865 9.89088C30.0659 10.2347 30.0895 10.653 30.035 11.1586L32.0235 11.3727ZM31.9401 9.4628C31.7967 8.772 31.4544 8.1758 30.8996 7.73475L29.6551 9.3004C29.8112 9.42446 29.9247 9.59389 29.9818 9.86923L31.9401 9.4628ZM30.9215 7.75267C30.3393 7.26242 29.5849 7.07489 28.8012 7.05312L28.7457 9.05235C29.2745 9.06704 29.5227 9.1894 29.6332 9.28249L30.9215 7.75267ZM28.7997 7.05308C27.9596 7.03097 27.1676 7.19172 26.4473 7.55773L27.3534 9.3407C27.7452 9.14161 28.2019 9.03804 28.7471 9.05239L28.7997 7.05308ZM26.4473 7.55773C25.7692 7.90234 25.178 8.37387 24.6763 8.96286L26.1987 10.2598C26.5356 9.86441 26.9196 9.5612 27.3534 9.3407L26.4473 7.55773ZM24.6752 8.9641C24.2001 9.52366 23.8121 10.1491 23.5103 10.836L25.3413 11.6406C25.5681 11.1243 25.8546 10.6651 26.1998 10.2586L24.6752 8.9641ZM23.5074 10.8427C23.2213 11.5067 23.0198 12.1866 22.9058 12.881L24.8794 13.205C24.9659 12.678 25.1198 12.1547 25.3442 11.6339L23.5074 10.8427ZM36.1699 13.8496L35.1783 13.7203L35.1756 13.7409L35.1738 13.7617L36.1699 13.8496ZM36.2109 13.5352L37.2025 13.6645L37.2038 13.6546L37.2049 13.6446L36.2109 13.5352ZM36.9492 10.6641L36.0291 10.2723L36.0259 10.2801L36.9492 10.6641ZM38.4941 8.20312L37.7457 7.53994L38.4941 8.20312ZM43.6895 5.93359L43.664 6.9333L43.6719 6.93344L43.6895 5.93359ZM46.3555 6.60352L45.8536 7.46847L45.8582 7.47111L46.3555 6.60352ZM48.1602 8.3125L47.3183 8.85217L47.3223 8.85846L47.3264 8.8647L48.1602 8.3125ZM49.1309 10.6914L50.1103 10.4895L49.1309 10.6914ZM49.2676 13.4258L48.2722 13.3291L48.2713 13.3392L49.2676 13.4258ZM49.2402 13.7402L50.2332 13.8587L50.2351 13.8428L50.2365 13.8269L49.2402 13.7402ZM46.916 19.0312L46.1765 18.3581L46.1718 18.3633L46.916 19.0312ZM44.6465 20.7129L45.0632 21.622L45.0709 21.6183L44.6465 20.7129ZM41.7344 21.2734L41.76 20.2737L41.7521 20.2736L41.7344 21.2734ZM39.0684 20.6172L38.5665 21.4821L38.5728 21.4858L38.5791 21.4893L39.0684 20.6172ZM37.2773 18.9219L36.4387 19.4665L37.2773 18.9219ZM38.6719 13.5352L37.6798 13.4094L37.6771 13.4307L37.6753 13.4521L38.6719 13.5352ZM38.6445 13.8633L39.6384 13.9737L39.6399 13.96L39.6411 13.9463L38.6445 13.8633ZM38.6309 15.6543L37.6347 15.7422L37.6354 15.7494L37.6361 15.7567L38.6309 15.6543ZM39.0684 17.377L38.15 17.7728L38.1529 17.7794L38.1559 17.786L39.0684 17.377ZM41.8301 19.209L41.8044 20.2087L41.806 20.2087L41.8301 19.209ZM43.8262 18.7715L44.3011 19.6516L44.3118 19.6456L43.8262 18.7715ZM45.2891 17.4863L44.4939 16.8798L44.4874 16.8885L45.2891 17.4863ZM46.2598 15.6953L45.3234 15.3442L45.3192 15.3557L46.2598 15.6953ZM46.752 13.7402L47.744 13.866L47.7465 13.8465L47.7482 13.8269L46.752 13.7402ZM46.7793 13.4258L45.7854 13.3153L45.7841 13.3272L45.7831 13.3392L46.7793 13.4258ZM46.7793 11.6348L45.7831 11.7214L45.7837 11.7293L45.7846 11.7372L46.7793 11.6348ZM46.3418 9.88477L45.4187 10.2694L45.4226 10.2787L45.4267 10.288L46.3418 9.88477ZM45.3301 8.55859L44.7172 9.34888L44.7275 9.35664L45.3301 8.55859ZM43.5938 8.01172L43.5576 9.01112L43.5681 9.01139L43.5938 8.01172ZM41.584 8.46289L42.0696 9.33706L42.0742 9.33447L41.584 8.46289ZM39.1504 11.5801L38.2125 11.2332L38.2098 11.2404L39.1504 11.5801ZM37.1615 13.9789L37.2025 13.6645L35.2193 13.4058L35.1783 13.7203L37.1615 13.9789ZM37.2049 13.6446C37.3039 12.7453 37.5263 11.8807 37.8726 11.048L36.0259 10.2801C35.6065 11.2886 35.3367 12.3381 35.2169 13.4257L37.2049 13.6446ZM37.8693 11.0558C38.2207 10.2304 38.6789 9.50252 39.2426 8.86631L37.7457 7.53994C37.0334 8.34383 36.4616 9.25663 36.0291 10.2723L37.8693 11.0558ZM39.2426 8.86631C39.7898 8.24872 40.4359 7.76586 41.1881 7.41327L40.3392 5.60235C39.3414 6.07008 38.4745 6.71743 37.7457 7.53994L39.2426 8.86631ZM41.1881 7.41327C41.9072 7.07619 42.7259 6.90942 43.664 6.93327L43.7149 4.93392C42.5019 4.90308 41.3701 5.11913 40.3392 5.60235L41.1881 7.41327ZM43.6719 6.93344C44.5775 6.94933 45.2915 7.1423 45.8536 7.46845L46.8573 5.73858C45.9429 5.20796 44.8796 4.95432 43.707 4.93375L43.6719 6.93344ZM45.8582 7.47111C46.4689 7.82117 46.9512 8.27947 47.3183 8.85217L49.002 7.77283C48.4577 6.92366 47.7368 6.24263 46.8527 5.73592L45.8582 7.47111ZM47.3264 8.8647C47.7159 9.45263 47.9931 10.1251 48.1515 10.8933L50.1103 10.4895C49.9041 9.4895 49.5341 8.57602 48.9939 7.7603L47.3264 8.8647ZM48.1515 10.8933C48.3126 11.675 48.3542 12.4856 48.2723 13.3291L50.2629 13.5224C50.3633 12.4884 50.3137 11.4761 50.1103 10.4895L48.1515 10.8933ZM48.2713 13.3392L48.244 13.6536L50.2365 13.8269L50.2638 13.5124L48.2713 13.3392ZM48.2473 13.6218C48.14 14.5208 47.9096 15.3801 47.5559 16.2026L49.3933 16.9927C49.8234 15.9923 50.1034 14.9466 50.2332 13.8587L48.2473 13.6218ZM47.5559 16.2026C47.2065 17.0154 46.7465 17.7319 46.1765 18.3581L47.6555 19.7044C48.3798 18.9087 48.9589 18.0028 49.3933 16.9927L47.5559 16.2026ZM46.1718 18.3633C45.6244 18.9733 44.977 19.4535 44.2221 19.8074L45.0709 21.6183C46.0659 21.1519 46.9316 20.5111 47.6603 19.6992L46.1718 18.3633ZM44.2298 19.8038C43.5079 20.1347 42.6907 20.2976 41.76 20.2738L41.7087 22.2731C42.9109 22.3039 44.0351 22.0931 45.0631 21.622L44.2298 19.8038ZM41.7521 20.2736C40.8542 20.2577 40.1344 20.0686 39.5576 19.745L38.5791 21.4893C39.4972 22.0043 40.5546 22.2527 41.7167 22.2733L41.7521 20.2736ZM39.5702 19.7522C38.965 19.4011 38.4845 18.9446 38.116 18.3773L36.4387 19.4665C36.9817 20.3028 37.6951 20.9765 38.5665 21.4821L39.5702 19.7522ZM38.116 18.3773C37.7322 17.7862 37.4581 17.1148 37.2993 16.3527L35.3413 16.7606C35.5472 17.7485 35.911 18.6539 36.4387 19.4665L38.116 18.3773ZM37.2993 16.3527C37.1379 15.5778 37.0922 14.7739 37.1661 13.9375L35.1738 13.7617C35.0835 14.7847 35.1382 15.7855 35.3413 16.7606L37.2993 16.3527ZM37.6753 13.4521L37.648 13.7802L39.6411 13.9463L39.6684 13.6182L37.6753 13.4521ZM37.6506 13.7528C37.579 14.3978 37.5747 15.0614 37.6347 15.7422L39.627 15.5664C39.5777 15.0076 39.5825 14.4772 39.6384 13.9737L37.6506 13.7528ZM37.6361 15.7567C37.7095 16.4693 37.8788 17.1434 38.15 17.7728L39.9867 16.9811C39.8022 16.5532 39.6798 16.0789 39.6256 15.5519L37.6361 15.7567ZM38.1559 17.786C38.4592 18.4627 38.9053 19.0314 39.4911 19.4738L40.6964 17.8777C40.389 17.6456 40.1515 17.3485 39.9809 16.9679L38.1559 17.786ZM39.4911 19.4738C40.1445 19.9672 40.9416 20.1865 41.8044 20.2087L41.8557 18.2093C41.2967 18.195 40.9362 18.0589 40.6964 17.8777L39.4911 19.4738ZM41.806 20.2087C42.7083 20.2304 43.5508 20.0564 44.3011 19.6515L43.3512 17.8915C42.9531 18.1063 42.4648 18.224 41.8542 18.2093L41.806 20.2087ZM44.3118 19.6456C45.0124 19.2564 45.6069 18.7329 46.0907 18.0842L44.4874 16.8885C44.1691 17.3153 43.7884 17.6485 43.3405 17.8973L44.3118 19.6456ZM46.0842 18.0928C46.5581 17.4715 46.9298 16.784 47.2003 16.035L45.3192 15.3557C45.1157 15.9192 44.8404 16.4257 44.4939 16.8799L46.0842 18.0928ZM47.1961 16.0464C47.4674 15.3228 47.6515 14.5956 47.744 13.866L45.7599 13.6145C45.6883 14.1791 45.5443 14.7553 45.3234 15.3442L47.1961 16.0464ZM47.7482 13.8269L47.7755 13.5124L45.7831 13.3392L45.7557 13.6536L47.7482 13.8269ZM47.7732 13.5362C47.8454 12.886 47.8446 12.2174 47.774 11.5324L45.7846 11.7372C45.8416 12.2917 45.8408 12.8171 45.7854 13.3153L47.7732 13.5362ZM47.7755 11.5481C47.7121 10.8181 47.5413 10.1268 47.2569 9.48151L45.4267 10.288C45.6163 10.7182 45.7372 11.1936 45.7831 11.7214L47.7755 11.5481ZM47.2649 9.50015C46.9729 8.79945 46.5293 8.21106 45.9327 7.76055L44.7275 9.35664C45.0241 9.58061 45.2549 9.87633 45.4187 10.2694L47.2649 9.50015ZM45.9429 7.76837C45.2887 7.26101 44.4878 7.03431 43.6194 7.01205L43.5681 9.01139C44.1216 9.02558 44.4783 9.16347 44.7173 9.34881L45.9429 7.76837ZM43.6299 7.01237C42.7142 6.97927 41.8577 7.1616 41.0937 7.59132L42.0742 9.33447C42.477 9.10793 42.9603 8.98948 43.5576 9.01107L43.6299 7.01237ZM41.0983 7.58873C40.3939 7.98007 39.7982 8.51106 39.3147 9.17036L40.9275 10.3531C41.2461 9.91863 41.6256 9.58373 42.0696 9.33705L41.0983 7.58873ZM39.3147 9.17036C38.8562 9.7956 38.4893 10.4846 38.2125 11.2332L40.0883 11.927C40.3036 11.3448 40.5839 10.8216 40.9275 10.3531L39.3147 9.17036ZM38.2098 11.2404C37.9496 11.9611 37.7717 12.6844 37.6798 13.4094L39.6639 13.6609C39.7361 13.0916 39.8772 12.5116 40.0909 11.9197L38.2098 11.2404ZM55.5566 9.20117L56.5419 9.37219L56.548 9.33683L56.5516 9.30113L55.5566 9.20117ZM52.5215 26.6875V27.6875H53.3629L53.5068 26.8585L52.5215 26.6875ZM50.0332 26.6875L49.0479 26.5165L48.8447 27.6875H50.0332V26.6875ZM53.5879 6.20703V5.20703H52.7465L52.6026 6.03602L53.5879 6.20703ZM55.8574 6.20703L56.8524 6.30698L56.9629 5.20703H55.8574V6.20703ZM64.457 13.3984L63.4628 13.2904L63.4615 13.3036L64.457 13.3984ZM64.4297 13.6855L65.421 13.817L65.4234 13.7987L65.4252 13.7804L64.4297 13.6855ZM63.7734 16.3926L62.8296 16.0622L62.8277 16.0678L63.7734 16.3926ZM62.502 18.8672L61.6902 18.2831L62.502 18.8672ZM60.5195 20.6582L60.0245 19.7893L60.0201 19.7918L60.5195 20.6582ZM57.7852 21.2871L57.8112 20.2874L57.805 20.2873L57.7852 21.2871ZM55.4199 20.6855L54.9072 21.5441L54.9161 21.5493L55.4199 20.6855ZM53.834 19.1406L52.984 19.6674L52.9873 19.6728L53.834 19.1406ZM52.9727 16.9805L51.9929 17.1809L51.9957 17.1938L52.9727 16.9805ZM52.8086 14.5195L51.8165 14.3944L51.8127 14.4243L51.8107 14.4545L52.8086 14.5195ZM53 13.002L52.0147 12.831L52.0108 12.8538L52.0079 12.8768L53 13.002ZM53.7793 10.3906L52.8627 9.99082L52.8607 9.99551L53.7793 10.3906ZM57.2383 6.48047L57.6771 7.37905L57.6814 7.37695L57.2383 6.48047ZM59.9316 5.93359L59.9044 6.93322L59.9046 6.93323L59.9316 5.93359ZM62.3926 6.67188L61.7982 7.47605L61.8047 7.48088L61.8113 7.48561L62.3926 6.67188ZM63.8418 8.46289L62.928 8.86903L62.931 8.87587L62.9342 8.88267L63.8418 8.46289ZM64.4707 10.8555L63.4752 10.9498L63.4753 10.9508L64.4707 10.8555ZM61.9414 13.6719L60.9505 13.5368L60.9496 13.5444L61.9414 13.6719ZM61.9824 13.3711L62.9733 13.5062L62.9746 13.4966L62.9757 13.487L61.9824 13.3711ZM62.0234 11.6348L61.0244 11.6795L61.0248 11.6869L61.0252 11.6944L62.0234 11.6348ZM61.6816 9.92578L60.7395 10.2611L60.743 10.2708L60.7466 10.2804L61.6816 9.92578ZM60.7656 8.59961L60.1204 9.36368L60.1287 9.37057L60.7656 8.59961ZM59.084 8.05273L59.0517 9.05224L59.0584 9.05241L59.084 8.05273ZM57.4707 8.33984L57.8421 9.26836L57.8506 9.26486L57.4707 8.33984ZM56.1035 9.20117L56.7679 9.94864L56.777 9.94037L56.1035 9.20117ZM55.0508 10.4727L55.9025 10.9968L55.9068 10.9895L55.0508 10.4727ZM54.4082 11.9766L53.4401 11.7262L53.4288 11.7697L53.4215 11.814L54.4082 11.9766ZM53.8203 15.5449L52.8336 15.3824L52.8215 15.4561L52.8204 15.5308L53.8203 15.5449ZM54.2441 17.3496L53.3586 17.8142L53.3618 17.8202L54.2441 17.3496ZM55.4336 18.6758L54.8754 19.5055L54.8823 19.5101L55.4336 18.6758ZM57.1699 19.209L57.1418 20.2086L57.1458 20.2087L57.1699 19.209ZM59.1387 18.7578L59.6363 19.6252L59.6408 19.6226L59.1387 18.7578ZM60.5605 17.4453L61.3798 18.0188L61.3842 18.0124L60.5605 17.4453ZM61.4766 15.627L62.4212 15.955L62.4226 15.9509L61.4766 15.627ZM54.5714 9.03016L51.5362 26.5165L53.5068 26.8585L56.5419 9.37219L54.5714 9.03016ZM52.5215 25.6875H50.0332V27.6875H52.5215V25.6875ZM51.0185 26.8585L54.5732 6.37804L52.6026 6.03602L49.0479 26.5165L51.0185 26.8585ZM53.5879 7.20703H55.8574V5.20703H53.5879V7.20703ZM54.8624 6.10708L54.5616 9.10122L56.5516 9.30113L56.8524 6.30698L54.8624 6.10708ZM63.4615 13.3036L63.4342 13.5907L65.4252 13.7804L65.4525 13.4932L63.4615 13.3036ZM63.4384 13.554C63.3295 14.3749 63.1276 15.2107 62.8296 16.0622L64.7173 16.7229C65.0573 15.7516 65.2929 14.7827 65.421 13.817L63.4384 13.554ZM62.8277 16.0678C62.5484 16.881 62.1688 17.618 61.6902 18.2831L63.3137 19.4512C63.9106 18.6216 64.3787 17.7089 64.7192 16.7174L62.8277 16.0678ZM61.6902 18.2831C61.2346 18.9164 60.6809 19.4153 60.0245 19.7893L61.0146 21.5271C61.9258 21.0079 62.6938 20.3127 63.3137 19.4512L61.6902 18.2831ZM60.0201 19.7918C59.4307 20.1316 58.7075 20.3108 57.8112 20.2874L57.7591 22.2868C58.9592 22.3181 60.0589 22.078 61.019 21.5246L60.0201 19.7918ZM57.805 20.2873C57.0188 20.2717 56.4047 20.1023 55.9238 19.8218L54.9161 21.5493C55.7476 22.0344 56.7104 22.266 57.7654 22.2869L57.805 20.2873ZM55.9327 19.827C55.4099 19.5148 54.9964 19.1109 54.6806 18.6085L52.9873 19.6728C53.4736 20.4464 54.1175 21.0724 54.9072 21.5441L55.9327 19.827ZM54.684 18.6139C54.3466 18.0694 54.1002 17.4565 53.9496 16.7671L51.9957 17.1938C52.1915 18.0903 52.5193 18.9175 52.984 19.6674L54.684 18.6139ZM53.9524 16.7801C53.8066 16.0676 53.7574 15.3366 53.8065 14.5846L51.8107 14.4545C51.7504 15.3795 51.8106 16.2892 51.9929 17.1809L53.9524 16.7801ZM53.8007 14.6447L53.9921 13.1271L52.0079 12.8768L51.8165 14.3944L53.8007 14.6447ZM53.9853 13.1729C54.1266 12.3581 54.3637 11.5628 54.6979 10.7857L52.8607 9.99551C52.4657 10.9137 52.1833 11.8594 52.0147 12.831L53.9853 13.1729ZM54.6959 10.7904C55.033 10.0175 55.4572 9.33 55.9669 8.72327L54.4355 7.43689C53.7967 8.19734 53.2729 9.05026 52.8627 9.99083L54.6959 10.7904ZM55.9669 8.72327C56.4533 8.14414 57.0219 7.69905 57.6771 7.37904L56.7994 5.5819C55.887 6.02752 55.0974 6.64883 54.4355 7.43689L55.9669 8.72327ZM57.6814 7.37695C58.3097 7.06638 59.0426 6.90972 59.9044 6.93322L59.9589 4.93397C58.8155 4.90278 57.7528 5.11071 56.7952 5.58399L57.6814 7.37695ZM59.9046 6.93323C60.7716 6.95666 61.3763 7.16424 61.7982 7.47605L62.987 5.8677C62.151 5.24982 61.1151 4.96522 59.9587 4.93396L59.9046 6.93323ZM61.8113 7.48561C62.2996 7.83433 62.67 8.28866 62.928 8.86903L64.7556 8.05675C64.3573 7.16056 63.7616 6.42088 62.9738 5.85814L61.8113 7.48561ZM62.9342 8.88267C63.2201 9.50094 63.4029 10.1873 63.4752 10.9498L65.4662 10.7612C65.3744 9.79191 65.138 8.88318 64.7494 8.04311L62.9342 8.88267ZM63.4753 10.9508C63.5509 11.7413 63.5465 12.5208 63.4629 13.2904L65.4512 13.5065C65.5498 12.599 65.5545 11.6832 65.4662 10.7602L63.4753 10.9508ZM62.9322 13.807L62.9733 13.5062L60.9916 13.236L60.9506 13.5368L62.9322 13.807ZM62.9757 13.487C63.047 12.8759 63.0612 12.238 63.0217 11.5752L61.0252 11.6944C61.0586 12.2529 61.0455 12.7726 60.9892 13.2552L62.9757 13.487ZM63.0224 11.59C62.9907 10.8819 62.8577 10.2068 62.6166 9.57113L60.7466 10.2804C60.9066 10.7021 61.0015 11.1663 61.0244 11.6795L63.0224 11.59ZM62.6237 9.59046C62.3749 8.8914 61.968 8.29581 61.4025 7.82865L60.1287 9.37057C60.4018 9.59612 60.6055 9.88464 60.7395 10.2611L62.6237 9.59046ZM61.4108 7.83558C60.7777 7.30096 59.9738 7.07522 59.1096 7.05306L59.0584 9.05241C59.6161 9.06671 59.9332 9.20555 60.1204 9.36364L61.4108 7.83558ZM59.1162 7.05325C58.4136 7.03059 57.7351 7.15021 57.0908 7.41482L57.8506 9.26486C58.2272 9.11021 58.6242 9.03842 59.0517 9.05221L59.1162 7.05325ZM57.0993 7.41137C56.4837 7.65761 55.9262 8.00987 55.43 8.46198L56.777 9.94037C57.1011 9.64508 57.4551 9.42312 57.8421 9.26832L57.0993 7.41137ZM55.4392 8.45376C54.9518 8.887 54.5369 9.38913 54.1947 9.95579L55.9068 10.9895C56.148 10.59 56.435 10.2445 56.7679 9.94858L55.4392 8.45376ZM54.1991 9.94856C53.8562 10.5058 53.6022 11.0991 53.4401 11.7262L55.3764 12.2269C55.4876 11.7967 55.662 11.3874 55.9024 10.9968L54.1991 9.94856ZM53.4215 11.814L52.8336 15.3824L54.807 15.7075L55.3949 12.1391L53.4215 11.814ZM52.8204 15.5308C52.809 16.3392 52.9871 17.106 53.3586 17.8142L55.1297 16.8851C54.9179 16.4813 54.8134 16.0449 54.8202 15.559L52.8204 15.5308ZM53.3618 17.8202C53.7284 18.5076 54.2347 19.0745 54.8754 19.5055L55.9918 17.8461C55.6299 17.6026 55.3432 17.2853 55.1265 16.879L53.3618 17.8202ZM54.8823 19.5101C55.5575 19.9562 56.3196 20.1854 57.1418 20.2086L57.1981 18.2094C56.726 18.1961 56.3305 18.0698 55.9849 17.8414L54.8823 19.5101ZM57.1458 20.2087C58.0518 20.2305 58.8952 20.0504 59.6363 19.6252L58.641 17.8904C58.2702 18.1032 57.8011 18.2239 57.194 18.2093L57.1458 20.2087ZM59.6408 19.6226C60.3343 19.2199 60.9155 18.682 61.3798 18.0188L59.7413 16.8719C59.4399 17.3024 59.0733 17.6394 58.6365 17.893L59.6408 19.6226ZM61.3842 18.0124C61.8194 17.3804 62.1648 16.6935 62.4212 15.955L60.5319 15.2989C60.3326 15.8729 60.0674 16.3983 59.7369 16.8782L61.3842 18.0124ZM62.4226 15.9509C62.6703 15.2277 62.8419 14.5102 62.9332 13.7994L60.9496 13.5444C60.8769 14.1096 60.7385 14.6955 60.5305 15.303L62.4226 15.9509ZM79.5918 1.09375L80.577 1.26495L80.7805 0.09375H79.5918V1.09375ZM76.1328 21V22H76.974L77.118 21.1712L76.1328 21ZM73.5488 21L72.5636 20.8288L72.3601 22H73.5488V21ZM77.0078 1.09375V0.09375H76.1666L76.0226 0.922552L77.0078 1.09375ZM86.127 10.0488L87.1116 10.2233L87.3197 9.04883H86.127V10.0488ZM85.7441 12.209V13.209H86.5825L86.7288 12.3835L85.7441 12.209ZM77.0762 12.209L76.0915 12.0345L75.8834 13.209H77.0762V12.209ZM77.459 10.0488V9.04883H76.6206L76.4743 9.87433L77.459 10.0488ZM88.9844 1.09375L89.969 1.26825L90.1772 0.09375H88.9844V1.09375ZM88.6016 3.25391V4.25391H89.4399L89.5862 3.4284L88.6016 3.25391ZM78.6348 3.25391L77.6501 3.07941L77.442 4.25391H78.6348V3.25391ZM79.0176 1.09375V0.09375H78.1792L78.0329 0.919254L79.0176 1.09375ZM78.6066 0.922552L75.1476 20.8288L77.118 21.1712L80.577 1.26495L78.6066 0.922552ZM76.1328 20H73.5488V22H76.1328V20ZM74.5341 21.1712L77.993 1.26495L76.0226 0.922552L72.5636 20.8288L74.5341 21.1712ZM77.0078 2.09375H79.5918V0.09375H77.0078V2.09375ZM85.1423 9.87433L84.7595 12.0345L86.7288 12.3835L87.1116 10.2233L85.1423 9.87433ZM85.7441 11.209H77.0762V13.209H85.7441V11.209ZM78.0608 12.3835L78.4436 10.2233L76.4743 9.87433L76.0915 12.0345L78.0608 12.3835ZM77.459 11.0488H86.127V9.04883H77.459V11.0488ZM87.9997 0.919254L87.6169 3.07941L89.5862 3.4284L89.969 1.26825L87.9997 0.919254ZM88.6016 2.25391H78.6348V4.25391H88.6016V2.25391ZM79.6194 3.4284L80.0022 1.26825L78.0329 0.919254L77.6501 3.07941L79.6194 3.4284ZM79.0176 2.09375H88.9844V0.09375H79.0176V2.09375ZM96.5312 3.00781L97.4163 3.47323L97.4835 3.34547L97.5118 3.20393L96.5312 3.00781ZM87.0703 21V22H87.6743L87.9554 21.4654L87.0703 21ZM84.3223 21L83.4438 20.5222L82.6399 22H84.3223V21ZM95.1504 1.09375V0.09375H94.556L94.2719 0.615913L95.1504 1.09375ZM96.9141 1.09375L97.8946 1.28987L98.1339 0.09375H96.9141V1.09375ZM98.8008 21L97.8166 21.1773L97.9648 22H98.8008V21ZM95.5059 2.70703L94.5186 2.54806L94.4915 2.71645L94.5217 2.8843L95.5059 2.70703ZM95.7656 1.09375V0.09375H94.9138L94.7783 0.934781L95.7656 1.09375ZM97.4062 1.09375L98.3874 0.900356L98.2284 0.09375H97.4062V1.09375ZM101.33 21V22H102.546L102.311 20.8066L101.33 21ZM99.7168 13.6309L100.701 13.8054L100.91 12.6309H99.7168V13.6309ZM99.334 15.791V16.791H100.172L100.319 15.9655L99.334 15.791ZM88.4648 15.791L87.4802 15.6165L87.272 16.791H88.4648V15.791ZM88.8477 13.6309V12.6309H88.0093L87.863 13.4564L88.8477 13.6309ZM95.6462 2.5424L86.1852 20.5346L87.9554 21.4654L97.4163 3.47323L95.6462 2.5424ZM87.0703 20H84.3223V22H87.0703V20ZM85.2007 21.4778L96.0288 1.57159L94.2719 0.615913L83.4438 20.5222L85.2007 21.4778ZM95.1504 2.09375H96.9141V0.09375H95.1504V2.09375ZM95.9335 0.897634L95.5507 2.8117L97.5118 3.20393L97.8946 1.28987L95.9335 0.897634ZM99.7849 20.8227L96.49 2.52976L94.5217 2.8843L97.8166 21.1773L99.7849 20.8227ZM96.4931 2.866L96.7529 1.25272L94.7783 0.934781L94.5186 2.54806L96.4931 2.866ZM95.7656 2.09375H97.4062V0.09375H95.7656V2.09375ZM96.4251 1.28714L100.349 21.1934L102.311 20.8066L98.3874 0.900356L96.4251 1.28714ZM101.33 20H98.8008V22H101.33V20ZM98.7321 13.4564L98.3493 15.6165L100.319 15.9655L100.701 13.8054L98.7321 13.4564ZM99.334 14.791H88.4648V16.791H99.334V14.791ZM89.4495 15.9655L89.8323 13.8054L87.863 13.4564L87.4802 15.6165L89.4495 15.9655ZM88.8477 14.6309H99.7168V12.6309H88.8477V14.6309ZM122.289 1.09375L123.274 1.26495L123.478 0.09375H122.289V1.09375ZM118.83 21V22H119.671L119.815 21.1712L118.83 21ZM116.328 21L115.42 21.4177L115.687 22H116.328V21ZM109.219 5.53711L110.127 5.11938L108.783 2.19539L108.233 5.36636L109.219 5.53711ZM106.539 21V22H107.381L107.524 21.1708L106.539 21ZM103.955 21L102.97 20.8288L102.766 22H103.955V21ZM107.414 1.09375V0.09375H106.573L106.429 0.922552L107.414 1.09375ZM109.902 1.09375L110.811 0.675606L110.543 0.09375H109.902V1.09375ZM117.039 16.5977L116.131 17.0158L117.474 19.9347L118.024 16.7688L117.039 16.5977ZM119.732 1.09375V0.09375H118.891L118.747 0.922592L119.732 1.09375ZM121.304 0.922552L117.845 20.8288L119.815 21.1712L123.274 1.26495L121.304 0.922552ZM118.83 20H116.328V22H118.83V20ZM117.237 20.5823L110.127 5.11938L108.31 5.95484L115.42 21.4177L117.237 20.5823ZM108.233 5.36636L105.554 20.8292L107.524 21.1708L110.204 5.70786L108.233 5.36636ZM106.539 20H103.955V22H106.539V20ZM104.94 21.1712L108.399 1.26495L106.429 0.922552L102.97 20.8288L104.94 21.1712ZM107.414 2.09375H109.902V0.09375H107.414V2.09375ZM108.994 1.51189L116.131 17.0158L117.947 16.1795L110.811 0.675606L108.994 1.51189ZM118.024 16.7688L120.718 1.26491L118.747 0.922592L116.054 16.4265L118.024 16.7688ZM119.732 2.09375H122.289V0.09375H119.732V2.09375ZM136.043 14.6836L136.032 13.6837L135.292 13.6916L135.084 14.4014L136.043 14.6836ZM138.572 14.6562L139.553 14.8524L139.795 13.643L138.561 13.6563L138.572 14.6562ZM137.027 18.2109L136.229 17.6086L136.226 17.6133L137.027 18.2109ZM134.197 20.5215L133.77 19.6172L133.768 19.6185L134.197 20.5215ZM130.396 21.2734L130.422 20.2738L130.418 20.2737L130.396 21.2734ZM127.225 20.4121L126.682 21.2524L126.687 21.255L127.225 20.4121ZM125.229 18.252L124.345 18.7207L124.349 18.7277L125.229 18.252ZM124.285 15.2988L123.294 15.4332L123.295 15.4414L124.285 15.2988ZM124.285 12.0449L123.295 11.9016L123.294 11.9128L124.285 12.0449ZM124.572 10.0625L123.584 9.91269L123.583 9.91917L124.572 10.0625ZM125.557 6.58984L124.638 6.19412L124.637 6.19775L125.557 6.58984ZM127.43 3.5957L126.681 2.93278L126.677 2.9372L127.43 3.5957ZM130.164 1.53125L129.736 0.627666L129.733 0.629116L130.164 1.53125ZM139.174 4.07422L138.268 4.49803L138.271 4.5048L139.174 4.07422ZM139.939 7.49219V8.49219H140.968L140.939 7.46383L139.939 7.49219ZM137.396 7.49219L136.397 7.52478L136.429 8.49219H137.396V7.49219ZM137 5.22266L137.943 4.89117L137 5.22266ZM133.65 2.9668L133.68 1.96723L133.678 1.96717L133.65 2.9668ZM131.012 3.52734L130.543 2.6438L130.539 2.64618L131.012 3.52734ZM129.098 5.16797L129.889 5.77973L129.893 5.77464L129.098 5.16797ZM127.143 10.0352L126.155 9.87919L126.153 9.88812L127.143 10.0352ZM126.842 12.0586L125.853 11.9116L125.851 11.9207L126.842 12.0586ZM126.732 14.3555L125.733 14.3892L125.733 14.3895L126.732 14.3555ZM127.129 16.6387L126.179 16.9513L126.181 16.9586L126.184 16.9658L127.129 16.6387ZM128.305 18.4023L127.651 19.1589L127.658 19.1648L127.665 19.1706L128.305 18.4023ZM130.52 19.127L130.555 18.1276L130.549 18.1274L130.52 19.127ZM134.922 17.1035L135.74 17.6785L135.744 17.6733L134.922 17.1035ZM136.054 15.6835L138.583 15.6562L138.561 13.6563L136.032 13.6837L136.054 15.6835ZM137.592 14.4601C137.344 15.6963 136.886 16.7387 136.229 17.6086L137.826 18.8133C138.682 17.678 139.253 16.3505 139.553 14.8524L137.592 14.4601ZM136.226 17.6133C135.577 18.4835 134.763 19.1488 133.77 19.6172L134.624 21.4258C135.91 20.8186 136.983 19.9436 137.829 18.8086L136.226 17.6133ZM133.768 19.6185C132.796 20.0807 131.688 20.3066 130.422 20.2738L130.371 22.2731C131.912 22.3131 133.338 22.0377 134.627 21.4245L133.768 19.6185ZM130.418 20.2737C129.3 20.2494 128.432 19.9965 127.763 19.5692L126.687 21.255C127.731 21.9215 128.977 22.2428 130.375 22.2732L130.418 20.2737ZM127.767 19.5718C127.061 19.1168 126.512 18.5225 126.108 17.7762L124.349 18.7277C124.911 19.7678 125.692 20.6137 126.682 21.2524L127.767 19.5718ZM126.112 17.7832C125.696 16.9991 125.415 16.1263 125.275 15.1562L123.295 15.4414C123.466 16.6224 123.813 17.7183 124.345 18.7207L126.112 17.7832ZM125.276 15.1645C125.142 14.1788 125.142 13.1839 125.276 12.1771L123.294 11.9128C123.136 13.0935 123.136 14.2678 123.294 15.4332L125.276 15.1645ZM125.275 12.1883L125.562 10.2058L123.583 9.91917L123.295 11.9016L125.275 12.1883ZM125.561 10.2123C125.731 9.09196 126.036 8.01586 126.477 6.98194L124.637 6.19775C124.129 7.38779 123.778 8.62679 123.584 9.91269L125.561 10.2123ZM126.475 6.98556C126.919 5.95536 127.489 5.04694 128.182 4.25421L126.677 2.9372C125.84 3.89446 125.161 4.98214 124.638 6.19412L126.475 6.98556ZM128.178 4.25861C128.865 3.48317 129.669 2.87662 130.596 2.43338L129.733 0.629116C128.563 1.18848 127.544 1.95824 126.681 2.93279L128.178 4.25861ZM130.592 2.43483C131.491 2.00902 132.532 1.79546 133.739 1.8201L133.78 -0.179479C132.308 -0.209526 130.952 0.0508762 129.736 0.627671L130.592 2.43483ZM133.739 1.8201C134.942 1.84465 135.873 2.11254 136.586 2.56632L137.66 0.878995C136.568 0.184332 135.257 -0.149335 133.78 -0.179479L133.739 1.8201ZM136.586 2.56632C137.324 3.03577 137.882 3.67205 138.268 4.49801L140.08 3.65042C139.536 2.48941 138.727 1.55798 137.66 0.878995L136.586 2.56632ZM138.271 4.5048C138.676 5.35307 138.907 6.35158 138.94 7.52054L140.939 7.46383C140.899 6.06248 140.62 4.78234 140.076 3.64364L138.271 4.5048ZM139.939 6.49219H137.396V8.49219H139.939V6.49219ZM138.396 7.4596C138.366 6.53637 138.22 5.67685 137.943 4.89117L136.057 5.55414C136.254 6.11742 136.372 6.77092 136.397 7.52478L138.396 7.4596ZM137.943 4.89117C137.645 4.04206 137.144 3.33561 136.436 2.80775L135.24 4.411C135.608 4.68522 135.881 5.0543 136.057 5.55414L137.943 4.89117ZM136.436 2.80775C135.682 2.24585 134.731 1.99846 133.68 1.96724L133.621 3.96636C134.411 3.98982 134.918 4.17082 135.24 4.411L136.436 2.80775ZM133.678 1.96717C132.532 1.93593 131.477 2.14908 130.543 2.64381L131.48 4.41087C132.06 4.10352 132.763 3.94297 133.623 3.96643L133.678 1.96717ZM130.539 2.64618C129.662 3.11656 128.915 3.75834 128.303 4.5613L129.893 5.77464C130.337 5.19218 130.866 4.74021 131.485 4.4085L130.539 2.64618ZM128.307 4.55622C127.714 5.32234 127.243 6.17622 126.89 7.11262L128.762 7.81707C129.048 7.05815 129.424 6.38078 129.889 5.77972L128.307 4.55622ZM126.89 7.11262C126.548 8.02166 126.302 8.94411 126.155 9.87919L128.13 10.1911C128.256 9.39443 128.466 8.60334 128.762 7.81707L126.89 7.11262ZM126.153 9.88812L125.853 11.9116L127.831 12.2056L128.132 10.1822L126.153 9.88812ZM125.851 11.9207C125.742 12.7037 125.704 13.5271 125.733 14.3892L127.732 14.3218C127.706 13.5614 127.741 12.8536 127.832 12.1965L125.851 11.9207ZM125.733 14.3895C125.763 15.2808 125.911 16.1361 126.179 16.9513L128.079 16.3261C127.873 15.7012 127.756 15.0343 127.732 14.3214L125.733 14.3895ZM126.184 16.9658C126.484 17.8329 126.972 18.5722 127.651 19.1589L128.959 17.6458C128.562 17.3028 128.266 16.8663 128.074 16.3116L126.184 16.9658ZM127.665 19.1706C128.43 19.8083 129.406 20.0946 130.49 20.1265L130.549 18.1274C129.774 18.1046 129.273 17.9079 128.945 17.6341L127.665 19.1706ZM130.484 20.1263C131.626 20.1671 132.67 19.9912 133.574 19.5451L132.688 17.7518C132.152 18.0166 131.455 18.1597 130.555 18.1276L130.484 20.1263ZM133.574 19.5451C134.448 19.1135 135.173 18.4861 135.74 17.6785L134.104 16.5286C133.723 17.0698 133.254 17.4724 132.688 17.7518L133.574 19.5451ZM135.744 17.6733C136.288 16.8887 136.704 15.9815 137.002 14.9658L135.084 14.4014C134.835 15.2451 134.504 15.9512 134.1 16.5337L135.744 17.6733ZM145.326 1.09375L146.277 0.782604L146.051 0.09375H145.326V1.09375ZM148.594 11.0742L147.643 11.3854L148.278 13.3247L149.422 11.6347L148.594 11.0742ZM155.348 1.09375V0.09375H154.817L154.519 0.533303L155.348 1.09375ZM158.424 1.09375L159.24 1.67172L160.357 0.09375H158.424V1.09375ZM149.496 13.6992L148.68 13.1213L148.55 13.3054L148.511 13.5276L149.496 13.6992ZM148.225 21V22H149.066L149.21 21.1716L148.225 21ZM145.654 21L144.669 20.8278L144.464 22H145.654V21ZM146.98 13.4121L147.966 13.5843L148.011 13.3221L147.921 13.0719L146.98 13.4121ZM142.523 1.09375V0.09375H141.098L141.583 1.43398L142.523 1.09375ZM144.376 1.4049L147.643 11.3854L149.544 10.7631L146.277 0.782604L144.376 1.4049ZM149.422 11.6347L156.176 1.6542L154.519 0.533303L147.766 10.5138L149.422 11.6347ZM155.348 2.09375H158.424V0.09375H155.348V2.09375ZM157.608 0.515782L148.68 13.1213L150.312 14.2772L159.24 1.67172L157.608 0.515782ZM148.511 13.5276L147.239 20.8284L149.21 21.1716L150.481 13.8708L148.511 13.5276ZM148.225 20H145.654V22H148.225V20ZM146.639 21.1722L147.966 13.5843L145.995 13.2399L144.669 20.8278L146.639 21.1722ZM147.921 13.0719L143.464 0.753516L141.583 1.43398L146.04 13.7523L147.921 13.0719ZM142.523 2.09375H145.326V0.09375H142.523V2.09375ZM163.387 1.09375L164.37 1.27628L164.589 0.09375H163.387V1.09375ZM160.734 15.3809V16.3809H161.566L161.718 15.5634L160.734 15.3809ZM158.492 15.3809L157.505 15.2221L157.319 16.3809H158.492V15.3809ZM160.789 1.09375V0.09375H159.937L159.802 0.935023L160.789 1.09375ZM157.48 19.7695L156.481 19.7483L156.48 19.7589V19.7695H157.48ZM157.891 18.7031L157.161 18.0192L157.16 18.02L157.891 18.7031ZM158.943 18.252L158.965 19.2517L158.965 19.2517L158.943 18.252ZM159.982 18.6484L159.275 19.3555L159.281 19.3613L159.287 19.367L159.982 18.6484ZM160.393 19.6875L159.393 19.6658L159.393 19.6766V19.6875H160.393ZM159.969 20.7402L159.262 20.0331L159.256 20.0389L159.25 20.0448L159.969 20.7402ZM162.404 0.911223L159.751 15.1983L161.718 15.5634L164.37 1.27628L162.404 0.911223ZM160.734 14.3809H158.492V16.3809H160.734V14.3809ZM159.48 15.5396L161.776 1.25248L159.802 0.935023L157.505 15.2221L159.48 15.5396ZM160.789 2.09375H163.387V0.09375H160.789V2.09375ZM158.48 19.7908C158.485 19.5802 158.543 19.4691 158.621 19.3863L157.16 18.02C156.709 18.5022 156.494 19.1021 156.481 19.7483L158.48 19.7908ZM158.62 19.3871C158.695 19.3068 158.784 19.2556 158.965 19.2517L158.922 17.2522C158.246 17.2666 157.633 17.5162 157.161 18.0192L158.62 19.3871ZM158.965 19.2517C159.137 19.248 159.212 19.2924 159.275 19.3555L160.69 17.9413C160.206 17.4576 159.588 17.2377 158.922 17.2522L158.965 19.2517ZM159.287 19.367C159.355 19.4328 159.396 19.5041 159.393 19.6658L161.392 19.7092C161.407 19.0324 161.175 18.4109 160.678 17.9298L159.287 19.367ZM159.393 19.6875C159.393 19.8561 159.347 19.9481 159.262 20.0331L160.676 21.4473C161.156 20.9672 161.393 20.3574 161.393 19.6875H159.393ZM159.25 20.0448C159.173 20.1246 159.083 20.1742 158.908 20.178L158.951 22.1775C159.615 22.1631 160.218 21.921 160.687 21.4357L159.25 20.0448ZM158.908 20.178C158.725 20.1819 158.647 20.1348 158.586 20.0759L157.196 21.5139C157.682 21.9837 158.295 22.1918 158.951 22.1775L158.908 20.178ZM158.586 20.0759C158.528 20.0203 158.48 19.9484 158.48 19.7695H156.48C156.48 20.4292 156.706 21.0409 157.196 21.5139L158.586 20.0759Z" fill="black" mask="url(#path-1-outside-1_13_20)"/>
</g>
<defs>
<filter id="filter0_d_13_20" x="0.560547" y="0" width="166.826" height="34.6875" filterUnits="userSpaceOnUse" color-interpolation-filters="sRGB">
<feFlood flood-opacity="0" result="BackgroundImageFix"/>
<feColorMatrix in="SourceAlpha" type="matrix" values="0 0 0 0 0 0 0 0 0 0 0 0 0 0 0 0 0 0 127 0" result="hardAlpha"/>
<feOffset dy="4"/>
<feGaussianBlur stdDeviation="2"/>
<feComposite in2="hardAlpha" operator="out"/>
<feColorMatrix type="matrix" values="0 0 0 0 0 0 0 0 0 0 0 0 0 0 0 0 0 0 0.25 0"/>
<feBlend mode="normal" in2="BackgroundImageFix" result="effect1_dropShadow_13_20"/>
<feBlend mode="normal" in="SourceGraphic" in2="effect1_dropShadow_13_20" result="shape"/>
</filter>
</defs>
</svg>
