<svg width="37" height="36" viewBox="0 0 37 36" fill="none" xmlns="http://www.w3.org/2000/svg">
<path d="M18.8165 36.0001H18.7373C8.83399 36.0001 0.776855 28.0272 0.776855 18.2275V18.1491C0.776855 8.34937 8.83399 0.376465 18.7373 0.376465H18.8165C28.7197 0.376465 36.7769 8.34937 36.7769 18.1491V18.2275C36.7769 28.0272 28.7197 36.0001 18.8165 36.0001ZM18.7373 1.58229C9.50542 1.58229 1.99542 9.01377 1.99542 18.1491V18.2275C1.99542 27.3628 9.50542 34.7943 18.7373 34.7943H18.8165C28.0483 34.7943 35.5583 27.3628 35.5583 18.2275V18.1491C35.5583 9.01377 28.0483 1.58229 18.8165 1.58229H18.7373Z" fill="white"/>
<path d="M24.1589 7.98169H13.3965C10.4232 7.98169 8.00439 10.3752 8.00439 13.3175V23.0605C8.00439 26.0027 10.4232 28.3963 13.3965 28.3963H24.1589C27.1322 28.3963 29.551 26.0027 29.551 23.0605V13.3175C29.551 10.3752 27.1322 7.98169 24.1589 7.98169ZM9.90657 13.3175C9.90657 11.4135 11.4724 9.86398 13.3965 9.86398H24.1589C26.083 9.86398 27.6488 11.4135 27.6488 13.3175V23.0605C27.6488 24.9645 26.083 26.514 24.1589 26.514H13.3965C11.4724 26.514 9.90657 24.9645 9.90657 23.0605V13.3175Z" fill="white"/>
<path d="M18.7778 23.1509C21.5427 23.1509 23.7934 20.925 23.7934 18.1878C23.7934 15.4506 21.544 13.2246 18.7778 13.2246C16.0117 13.2246 13.7622 15.4506 13.7622 18.1878C13.7622 20.925 16.0117 23.1509 18.7778 23.1509ZM18.7778 15.1081C20.4948 15.1081 21.8912 16.49 21.8912 18.189C21.8912 19.888 20.4948 21.2699 18.7778 21.2699C17.0609 21.2699 15.6644 19.888 15.6644 18.189C15.6644 16.49 17.0609 15.1081 18.7778 15.1081Z" fill="white"/>
<path d="M24.2576 14.0263C25.0022 14.0263 25.609 13.427 25.609 12.6891C25.609 11.9511 25.0034 11.3518 24.2576 11.3518C23.5119 11.3518 22.9062 11.9511 22.9062 12.6891C22.9062 13.427 23.5119 14.0263 24.2576 14.0263Z" fill="white"/>
</svg>
