<svg width="28" height="28" viewBox="0 0 28 28" fill="none" xmlns="http://www.w3.org/2000/svg">
<g clip-path="url(#clip0_24_782)">
<path d="M8.56032 0.0959784C7.10386 0.164695 6.10925 0.397126 5.23976 0.738791C4.33988 1.08949 3.57715 1.5601 2.81826 2.32173C2.05937 3.08336 1.59204 3.84663 1.24381 4.74789C0.906795 5.6193 0.678471 6.61473 0.614135 8.07201C0.549798 9.52929 0.535562 9.99771 0.54268 13.715C0.549798 17.4322 0.566225 17.8982 0.636857 19.3585C0.706395 20.8146 0.938005 21.809 1.27967 22.6788C1.63092 23.5786 2.10098 24.3411 2.86288 25.1003C3.62479 25.8594 4.38751 26.3256 5.29095 26.6744C6.16154 27.0109 7.15725 27.2403 8.61425 27.3041C10.0713 27.3679 10.5402 27.3827 14.2564 27.3756C17.9725 27.3684 18.4404 27.352 19.9004 27.2828C21.3605 27.2135 22.3496 26.9802 23.2196 26.6402C24.1195 26.2881 24.8825 25.8189 25.6411 25.0567C26.3997 24.2945 26.8668 23.5307 27.2148 22.6289C27.552 21.7583 27.7812 20.7626 27.8444 19.3067C27.9082 17.8456 27.9233 17.3791 27.9162 13.6624C27.909 9.94569 27.8923 9.47973 27.8231 8.01999C27.7538 6.56025 27.5219 5.56892 27.1805 4.69861C26.8287 3.79872 26.3592 3.03682 25.5976 2.27711C24.836 1.51739 24.0716 1.05062 23.1701 0.703475C22.2989 0.366464 21.3038 0.13677 19.8468 0.073803C18.3898 0.0108358 17.9208 -0.00531667 14.2033 0.00180136C10.4857 0.00891939 10.0203 0.0247981 8.56032 0.0959784ZM8.7202 24.8415C7.38557 24.7835 6.6609 24.5617 6.17797 24.3761C5.53844 24.1297 5.08289 23.8319 4.6016 23.3552C4.12031 22.8786 3.82464 22.4214 3.57496 21.7833C3.38743 21.3003 3.16157 20.5765 3.09915 19.2418C3.03125 17.7993 3.01702 17.3662 3.00908 13.7117C3.00114 10.0571 3.0151 9.62456 3.07834 8.18151C3.13529 6.84798 3.35841 6.12249 3.54375 5.63983C3.79015 4.99948 4.08691 4.54475 4.56464 4.06373C5.04237 3.58272 5.4982 3.2865 6.13691 3.03682C6.61929 2.84847 7.34314 2.62452 8.67722 2.56101C10.1208 2.49256 10.5534 2.47888 14.2074 2.47094C17.8614 2.463 18.295 2.47669 19.7392 2.5402C21.0727 2.59824 21.7985 2.81917 22.2806 3.00561C22.9204 3.252 23.3757 3.54795 23.8567 4.0265C24.3377 4.50505 24.6342 4.95924 24.8839 5.59931C25.0725 6.08033 25.2965 6.8039 25.3594 8.13881C25.4281 9.5824 25.4437 10.0152 25.4503 13.669C25.4569 17.3227 25.444 17.7566 25.3808 19.1991C25.3225 20.5338 25.1013 21.2587 24.9154 21.7422C24.669 22.3814 24.3719 22.8373 23.8939 23.318C23.4159 23.7987 22.9606 24.095 22.3217 24.3446C21.8398 24.5327 21.1152 24.7572 19.7822 24.8207C18.3386 24.8886 17.906 24.9029 14.2506 24.9108C10.5953 24.9187 10.1641 24.904 8.72048 24.8415M19.8794 6.37271C19.8799 6.69762 19.9768 7.01506 20.1578 7.2849C20.3387 7.55474 20.5956 7.76485 20.896 7.88866C21.1964 8.01246 21.5268 8.04441 21.8453 7.98045C22.1639 7.9165 22.4563 7.75951 22.6856 7.52935C22.9149 7.29919 23.0709 7.00619 23.1336 6.68741C23.1964 6.36863 23.1633 6.03839 23.0384 5.73846C22.9134 5.43853 22.7024 5.18238 22.4319 5.0024C22.1614 4.82242 21.8436 4.7267 21.5187 4.72735C21.0831 4.72822 20.6658 4.90204 20.3583 5.21059C20.0509 5.51914 19.8786 5.93716 19.8794 6.37271ZM7.20105 13.7024C7.20872 17.5844 10.3615 20.7243 14.2427 20.7169C18.1239 20.7095 21.266 17.5571 21.2586 13.675C21.2512 9.79293 18.0977 6.65223 14.2159 6.6599C10.3341 6.66756 7.19366 9.82085 7.20105 13.7024ZM9.66663 13.6974C9.66484 12.795 9.93071 11.9123 10.4306 11.1609C10.9305 10.4095 11.642 9.82329 12.4751 9.47628C13.3081 9.12927 14.2254 9.0371 15.1109 9.21141C15.9963 9.38572 16.8102 9.81868 17.4496 10.4556C18.089 11.0924 18.5252 11.9046 18.703 12.7894C18.8808 13.6741 18.7923 14.5918 18.4486 15.4262C18.1049 16.2607 17.5215 16.9745 16.7721 17.4773C16.0227 17.9802 15.1411 18.2495 14.2386 18.2513C13.6394 18.2526 13.0457 18.1358 12.4917 17.9076C11.9376 17.6794 11.4339 17.3443 11.0093 16.9214C10.5847 16.4986 10.2476 15.9962 10.0173 15.443C9.78689 14.8898 9.66774 14.2967 9.66663 13.6974Z" fill="white"/>
</g>
<defs>
<clipPath id="clip0_24_782">
<rect width="27.377" height="27.377" fill="white" transform="translate(0.541016)"/>
</clipPath>
</defs>
</svg>
