<svg width="37" height="36" viewBox="0 0 37 36" fill="none" xmlns="http://www.w3.org/2000/svg">
<path d="M18.5928 35.6236H18.5136C8.61036 35.6236 0.553223 27.6507 0.553223 17.851V17.7726C0.553223 7.9729 8.61036 0 18.5136 0H18.5928C28.4961 0 36.5532 7.9729 36.5532 17.7726V17.851C36.5532 27.6507 28.4961 35.6236 18.5928 35.6236ZM18.5136 1.20582C9.28179 1.20582 1.77179 8.63731 1.77179 17.7726V17.851C1.77179 26.9863 9.28179 34.4178 18.5136 34.4178H18.5928C27.8247 34.4178 35.3347 26.9863 35.3347 17.851V17.7726C35.3347 8.63731 27.8247 1.20582 18.5928 1.20582H18.5136Z" fill="white"/>
<path fill-rule="evenodd" clip-rule="evenodd" d="M16.9659 22.5175C16.9452 22.5886 16.9257 22.6489 16.9099 22.7092C15.9899 26.276 15.8875 27.0683 14.9419 28.7251C14.491 29.5125 13.9829 30.2588 13.4211 30.9727C13.3578 31.0535 13.298 31.1572 13.1713 31.1319C13.0324 31.1029 13.0214 30.9787 13.0068 30.869C12.8557 29.785 12.7716 28.6985 12.8082 27.6036C12.8557 26.1784 13.0336 25.6888 14.8907 17.9619C14.9175 17.8437 14.8871 17.7461 14.8481 17.6399C14.4033 16.4534 14.3155 15.2488 14.7043 14.0285C15.5451 11.3926 18.5647 11.1912 19.0923 13.3653C19.4177 14.7098 18.5574 16.4703 17.8969 19.0724C17.3498 21.2188 19.9039 22.7454 22.0863 21.1778C24.0994 19.7332 24.8805 16.2701 24.7318 13.8151C24.4394 8.92063 19.0155 7.86312 15.5755 9.43913C11.6311 11.2442 10.7342 16.082 12.5157 18.2935C12.7412 18.5744 13.1664 18.7469 13.0921 19.0314C12.9776 19.474 12.8764 19.9201 12.7521 20.3603C12.6595 20.6882 12.1319 20.8076 11.7968 20.6726C11.14 20.4097 10.5928 19.9961 10.1493 19.4511C8.63705 17.5977 8.20446 13.932 10.2041 10.8282C12.4195 7.39044 16.5406 5.99892 20.3036 6.42095C24.7976 6.92619 27.6381 9.96488 28.1694 13.4123C28.4119 14.9823 28.2376 18.8542 26.0101 21.5914C23.4475 24.7362 19.2934 24.9448 17.3766 23.0143C17.2291 22.866 17.1109 22.6935 16.9659 22.5163V22.5175Z" fill="white"/>
</svg>
