<svg width="28" height="28" viewBox="0 0 28 28" fill="none" xmlns="http://www.w3.org/2000/svg">
<g clip-path="url(#clip0_24_784)">
<path d="M14.3114 27.377C21.8714 27.377 28 21.2485 28 13.6885C28 6.12856 21.8714 0 14.3114 0C6.75148 0 0.622925 6.12856 0.622925 13.6885C0.622925 21.2485 6.75148 27.377 14.3114 27.377Z" fill="black"/>
<path d="M14.3114 0C6.75178 0 0.622925 6.12885 0.622925 13.6885C0.622925 19.4907 4.22813 24.4478 9.32049 26.4419C9.19656 25.3604 9.09516 23.693 9.36555 22.51C9.61341 21.4397 10.9654 15.7052 10.9654 15.7052C10.9654 15.7052 10.5598 14.8827 10.5598 13.6773C10.5598 11.7733 11.6639 10.3537 13.0384 10.3537C14.21 10.3537 14.7734 11.2325 14.7734 12.2802C14.7734 13.4519 14.0298 15.2095 13.6355 16.8431C13.3087 18.2063 14.3227 19.3217 15.6634 19.3217C18.0969 19.3217 19.9671 16.7529 19.9671 13.0576C19.9671 9.77912 17.6125 7.49207 14.2438 7.49207C10.3457 7.49207 8.05866 10.41 8.05866 13.4294C8.05866 14.6011 8.50932 15.8629 9.07263 16.5502C9.18529 16.6853 9.19656 16.8093 9.16276 16.9445C9.06136 17.3726 8.82477 18.3077 8.77971 18.4992C8.72338 18.7471 8.57691 18.8034 8.31779 18.6795C6.60532 17.8796 5.53502 15.3897 5.53502 13.3731C5.53502 9.05808 8.66704 5.09236 14.5818 5.09236C19.3249 5.09236 23.0203 8.47224 23.0203 13.0013C23.0203 17.7218 20.046 21.5186 15.9225 21.5186C14.5368 21.5186 13.2299 20.7975 12.7905 19.9413C12.7905 19.9413 12.1033 22.5551 11.9343 23.1973C11.6301 24.3915 10.7964 25.8786 10.2331 26.7912C11.5174 27.1855 12.8694 27.3996 14.2889 27.3996C21.8486 27.3996 27.9774 21.2707 27.9774 13.7111C28 6.12885 21.8711 0 14.3114 0Z" fill="white"/>
</g>
<defs>
<clipPath id="clip0_24_784">
<rect width="27.377" height="27.377" fill="white" transform="translate(0.622925)"/>
</clipPath>
</defs>
</svg>
