<svg width="45" height="45" viewBox="0 0 45 45" fill="none" xmlns="http://www.w3.org/2000/svg">
<rect width="45" height="45" rx="4" fill="#F1F1F1"/>
<path d="M18.91 31.67C18.72 31.67 18.53 31.6 18.38 31.45C18.09 31.16 18.09 30.68 18.38 30.39L24.9 23.87C25.38 23.39 25.38 22.61 24.9 22.13L18.38 15.61C18.09 15.32 18.09 14.84 18.38 14.55C18.67 14.26 19.15 14.26 19.44 14.55L25.96 21.07C26.47 21.58 26.76 22.27 26.76 23C26.76 23.73 26.48 24.42 25.96 24.93L19.44 31.45C19.29 31.59 19.1 31.67 18.91 31.67Z" fill="#1E1E1E"/>
</svg>
