<svg width="31" height="30" viewBox="0 0 31 30" fill="none" xmlns="http://www.w3.org/2000/svg">
<path d="M23.1283 22.1875H9.8158C8.5783 22.1875 7.3908 21.6625 6.5533 20.75C5.7158 19.8375 5.29081 18.6125 5.39081 17.375L6.42831 4.925C6.46581 4.5375 6.3283 4.16251 6.0658 3.87501C5.8033 3.58751 5.4408 3.4375 5.0533 3.4375H2.89081C2.37831 3.4375 1.95331 3.0125 1.95331 2.5C1.95331 1.9875 2.37831 1.5625 2.89081 1.5625H5.06581C5.97831 1.5625 6.8408 1.95 7.4533 2.6125C7.7908 2.9875 8.0408 3.42501 8.1783 3.91251H23.7908C25.0533 3.91251 26.2158 4.4125 27.0658 5.3125C27.9033 6.225 28.3283 7.4125 28.2283 8.675L27.5533 18.05C27.4158 20.3375 25.4158 22.1875 23.1283 22.1875ZM8.24081 5.77499L7.26581 17.525C7.20331 18.25 7.44081 18.9375 7.92831 19.475C8.41581 20.0125 9.0908 20.3 9.8158 20.3H23.1283C24.4283 20.3 25.6033 19.2 25.7033 17.9L26.3783 8.52501C26.4283 7.78751 26.1908 7.08751 25.7033 6.57501C25.2158 6.05001 24.5408 5.76248 23.8033 5.76248H8.24081V5.77499Z" fill="#062940"/>
<path d="M20.7033 28.4375C19.3283 28.4375 18.2033 27.3125 18.2033 25.9375C18.2033 24.5625 19.3283 23.4375 20.7033 23.4375C22.0783 23.4375 23.2033 24.5625 23.2033 25.9375C23.2033 27.3125 22.0783 28.4375 20.7033 28.4375ZM20.7033 25.3125C20.3533 25.3125 20.0783 25.5875 20.0783 25.9375C20.0783 26.2875 20.3533 26.5625 20.7033 26.5625C21.0533 26.5625 21.3283 26.2875 21.3283 25.9375C21.3283 25.5875 21.0533 25.3125 20.7033 25.3125Z" fill="#062940"/>
<path d="M10.7033 28.4375C9.32831 28.4375 8.20331 27.3125 8.20331 25.9375C8.20331 24.5625 9.32831 23.4375 10.7033 23.4375C12.0783 23.4375 13.2033 24.5625 13.2033 25.9375C13.2033 27.3125 12.0783 28.4375 10.7033 28.4375ZM10.7033 25.3125C10.3533 25.3125 10.0783 25.5875 10.0783 25.9375C10.0783 26.2875 10.3533 26.5625 10.7033 26.5625C11.0533 26.5625 11.3283 26.2875 11.3283 25.9375C11.3283 25.5875 11.0533 25.3125 10.7033 25.3125Z" fill="#062940"/>
<path d="M26.6408 10.9375H11.6408C11.1283 10.9375 10.7033 10.5125 10.7033 10C10.7033 9.4875 11.1283 9.0625 11.6408 9.0625H26.6408C27.1533 9.0625 27.5783 9.4875 27.5783 10C27.5783 10.5125 27.1533 10.9375 26.6408 10.9375Z" fill="#062940"/>
</svg>
