<svg width="71" height="9" viewBox="0 0 71 9" fill="none" xmlns="http://www.w3.org/2000/svg">
<path d="M4.75077 0.423698C4.95254 -0.141233 5.8289 -0.141233 6.03 0.423698L6.74965 2.44297C6.79361 2.56595 6.87908 2.6731 6.99384 2.74912C7.10859 2.82513 7.24676 2.86611 7.38859 2.86621H9.71702C10.3687 2.86621 10.6391 3.62681 10.1125 3.97644L8.22929 5.22407C8.11431 5.30015 8.02868 5.40748 7.9847 5.53068C7.94072 5.65387 7.94065 5.7866 7.98448 5.90984L8.70413 7.92911C8.9059 8.49404 8.19634 8.96451 7.66837 8.61488L5.78518 7.36725C5.67031 7.29119 5.532 7.25023 5.39005 7.25023C5.2481 7.25023 5.10979 7.29119 4.99492 7.36725L3.11173 8.61488C2.58443 8.96451 1.87555 8.49404 2.07664 7.92911L2.79629 5.90984C2.84013 5.7866 2.84005 5.65387 2.79607 5.53068C2.75209 5.40748 2.66647 5.30015 2.55148 5.22407L0.668961 3.97705C0.14234 3.62742 0.413385 2.86682 1.06443 2.86682H3.39219C3.53413 2.86686 3.67245 2.82593 3.78734 2.74991C3.90223 2.67389 3.9878 2.56666 4.0318 2.44358L4.75145 0.424311L4.75077 0.423698Z" fill="#FF9A3F"/>
<path d="M19.7508 0.423698C19.9525 -0.141233 20.8289 -0.141233 21.03 0.423698L21.7496 2.44297C21.7936 2.56595 21.8791 2.6731 21.9938 2.74912C22.1086 2.82513 22.2468 2.86611 22.3886 2.86621H24.717C25.3687 2.86621 25.6391 3.62681 25.1125 3.97644L23.2293 5.22407C23.1143 5.30015 23.0287 5.40748 22.9847 5.53068C22.9407 5.65387 22.9406 5.7866 22.9845 5.90984L23.7041 7.92911C23.9059 8.49404 23.1963 8.96451 22.6684 8.61488L20.7852 7.36725C20.6703 7.29119 20.532 7.25023 20.3901 7.25023C20.2481 7.25023 20.1098 7.29119 19.9949 7.36725L18.1117 8.61488C17.5844 8.96451 16.8755 8.49404 17.0766 7.92911L17.7963 5.90984C17.8401 5.7866 17.84 5.65387 17.7961 5.53068C17.7521 5.40748 17.6665 5.30015 17.5515 5.22407L15.669 3.97705C15.1423 3.62742 15.4134 2.86682 16.0644 2.86682H18.3922C18.5341 2.86686 18.6724 2.82593 18.7873 2.74991C18.9022 2.67389 18.9878 2.56666 19.0318 2.44358L19.7514 0.424311L19.7508 0.423698Z" fill="#FF9A3F"/>
<path d="M34.7508 0.423698C34.9525 -0.141233 35.8289 -0.141233 36.03 0.423698L36.7496 2.44297C36.7936 2.56595 36.8791 2.6731 36.9938 2.74912C37.1086 2.82513 37.2468 2.86611 37.3886 2.86621H39.717C40.3687 2.86621 40.6391 3.62681 40.1125 3.97644L38.2293 5.22407C38.1143 5.30015 38.0287 5.40748 37.9847 5.53068C37.9407 5.65387 37.9406 5.7866 37.9845 5.90984L38.7041 7.92911C38.9059 8.49404 38.1963 8.96451 37.6684 8.61488L35.7852 7.36725C35.6703 7.29119 35.532 7.25023 35.3901 7.25023C35.2481 7.25023 35.1098 7.29119 34.9949 7.36725L33.1117 8.61488C32.5844 8.96451 31.8755 8.49404 32.0766 7.92911L32.7963 5.90984C32.8401 5.7866 32.84 5.65387 32.7961 5.53068C32.7521 5.40748 32.6665 5.30015 32.5515 5.22407L30.669 3.97705C30.1423 3.62742 30.4134 2.86682 31.0644 2.86682H33.3922C33.5341 2.86686 33.6724 2.82593 33.7873 2.74991C33.9022 2.67389 33.9878 2.56666 34.0318 2.44358L34.7514 0.424311L34.7508 0.423698Z" fill="#FF9A3F"/>
<path d="M49.7508 0.423698C49.9525 -0.141233 50.8289 -0.141233 51.03 0.423698L51.7496 2.44297C51.7936 2.56595 51.8791 2.6731 51.9938 2.74912C52.1086 2.82513 52.2468 2.86611 52.3886 2.86621H54.717C55.3687 2.86621 55.6391 3.62681 55.1125 3.97644L53.2293 5.22407C53.1143 5.30015 53.0287 5.40748 52.9847 5.53068C52.9407 5.65387 52.9406 5.7866 52.9845 5.90984L53.7041 7.92911C53.9059 8.49404 53.1963 8.96451 52.6684 8.61488L50.7852 7.36725C50.6703 7.29119 50.532 7.25023 50.3901 7.25023C50.2481 7.25023 50.1098 7.29119 49.9949 7.36725L48.1117 8.61488C47.5844 8.96451 46.8755 8.49404 47.0766 7.92911L47.7963 5.90984C47.8401 5.7866 47.84 5.65387 47.7961 5.53068C47.7521 5.40748 47.6665 5.30015 47.5515 5.22407L45.669 3.97705C45.1423 3.62742 45.4134 2.86682 46.0644 2.86682H48.3922C48.5341 2.86686 48.6724 2.82593 48.7873 2.74991C48.9022 2.67389 48.9878 2.56666 49.0318 2.44358L49.7514 0.424311L49.7508 0.423698Z" fill="#FF9A3F"/>
<path d="M64.7508 0.423698C64.9525 -0.141233 65.8289 -0.141233 66.03 0.423698L66.7496 2.44297C66.7936 2.56595 66.8791 2.6731 66.9938 2.74912C67.1086 2.82513 67.2468 2.86611 67.3886 2.86621H69.717C70.3687 2.86621 70.6391 3.62681 70.1125 3.97644L68.2293 5.22407C68.1143 5.30015 68.0287 5.40748 67.9847 5.53068C67.9407 5.65387 67.9406 5.7866 67.9845 5.90984L68.7041 7.92911C68.9059 8.49404 68.1963 8.96451 67.6684 8.61488L65.7852 7.36725C65.6703 7.29119 65.532 7.25023 65.3901 7.25023C65.2481 7.25023 65.1098 7.29119 64.9949 7.36725L63.1117 8.61488C62.5844 8.96451 61.8755 8.49404 62.0766 7.92911L62.7963 5.90984C62.8401 5.7866 62.84 5.65387 62.7961 5.53068C62.7521 5.40748 62.6665 5.30015 62.5515 5.22407L60.669 3.97705C60.1423 3.62742 60.4134 2.86682 61.0644 2.86682H63.3922C63.5341 2.86686 63.6724 2.82593 63.7873 2.74991C63.9022 2.67389 63.9878 2.56666 64.0318 2.44358L64.7514 0.424311L64.7508 0.423698Z" fill="#FF9A3F"/>
</svg>
