<svg width="37" height="36" viewBox="0 0 37 36" fill="none" xmlns="http://www.w3.org/2000/svg">
<path d="M18.3697 35.6236H18.2905C8.38722 35.6236 0.330078 27.6507 0.330078 17.851V17.7726C0.330078 7.9729 8.38722 0 18.2905 0H18.3697C28.2729 0 36.3301 7.9729 36.3301 17.7726V17.851C36.3301 27.6507 28.2729 35.6236 18.3697 35.6236ZM18.2905 1.20582C9.05865 1.20582 1.54864 8.63731 1.54864 17.7726V17.851C1.54864 26.9863 9.05865 34.4178 18.2905 34.4178H18.3697C27.6015 34.4178 35.1115 26.9863 35.1115 17.851V17.7726C35.1115 8.63731 27.6015 1.20582 18.3697 1.20582H18.2905Z" fill="white"/>
<path d="M7.99381 8.39502L16.0144 19.0063L7.94385 27.6339H9.76073L16.8272 20.0806L22.5361 27.6339H28.7179L20.2465 16.4258L27.7589 8.39502H25.942L19.4349 15.3514L14.1768 8.39502H7.99502H7.99381ZM10.6649 9.71901H13.5042L26.0444 26.3099H23.2051L10.6649 9.71901Z" fill="white"/>
</svg>
